<?xml version="1.0" encoding="utf-8" standalone="no"?>
<!DOCTYPE svg PUBLIC "-//W3C//DTD SVG 1.1//EN"
  "http://www.w3.org/Graphics/SVG/1.1/DTD/svg11.dtd">
<svg height="345.6pt" version="1.1" viewBox="0 0 460.8 345.6" width="460.8pt" xmlns="http://www.w3.org/2000/svg" xmlns:xlink="http://www.w3.org/1999/xlink">
 <metadata>
  <rdf:RDF xmlns:cc="http://creativecommons.org/ns#" xmlns:dc="http://purl.org/dc/elements/1.1/" xmlns:rdf="http://www.w3.org/1999/02/22-rdf-syntax-ns#">
   <cc:Work>
    <dc:type rdf:resource="http://purl.org/dc/dcmitype/StillImage"/>
    <dc:date>2021-09-06T21:36:42.365023</dc:date>
    <dc:format>image/svg+xml</dc:format>
    <dc:creator>
     <cc:Agent>
      <dc:title>Matplotlib v3.4.3, https://matplotlib.org/</dc:title>
     </cc:Agent>
    </dc:creator>
   </cc:Work>
  </rdf:RDF>
 </metadata>
 <defs>
  <style type="text/css">*{stroke-linecap:butt;stroke-linejoin:round;}</style>
 </defs>
 <g id="figure_1">
  <g id="patch_1">
   <path d="M 0 345.6 
L 460.8 345.6 
L 460.8 0 
L 0 0 
z
" style="fill:#ffffff;"/>
  </g>
  <g id="axes_1">
   <g id="patch_2">
    <path d="M 57.6 307.584 
L 414.72 307.584 
L 414.72 41.472 
L 57.6 41.472 
z
" style="fill:#ffffff;"/>
   </g>
   <g id="PathCollection_1">
    <defs>
     <path d="M 0 3 
C 0.795609 3 1.55874 2.683901 2.12132 2.12132 
C 2.683901 1.55874 3 0.795609 3 0 
C 3 -0.795609 2.683901 -1.55874 2.12132 -2.12132 
C 1.55874 -2.683901 0.795609 -3 0 -3 
C -0.795609 -3 -1.55874 -2.683901 -2.12132 -2.12132 
C -2.683901 -1.55874 -3 -0.795609 -3 0 
C -3 0.795609 -2.683901 1.55874 -2.12132 2.12132 
C -1.55874 2.683901 -0.795609 3 0 3 
z
" id="mb6d9ae12ba" style="stroke:#1f77b4;"/>
    </defs>
    <g clip-path="url(#pa9b7385c9b)">
     <use style="fill:#1f77b4;stroke:#1f77b4;" x="74.31799" xlink:href="#mb6d9ae12ba" y="295.488"/>
     <use style="fill:#1f77b4;stroke:#1f77b4;" x="112.158409" xlink:href="#mb6d9ae12ba" y="294.909639"/>
     <use style="fill:#1f77b4;stroke:#1f77b4;" x="129.81772" xlink:href="#mb6d9ae12ba" y="294.66177"/>
     <use style="fill:#1f77b4;stroke:#1f77b4;" x="120.995687" xlink:href="#mb6d9ae12ba" y="294.413902"/>
     <use style="fill:#1f77b4;stroke:#1f77b4;" x="84.802616" xlink:href="#mb6d9ae12ba" y="294.000787"/>
     <use style="fill:#1f77b4;stroke:#1f77b4;" x="154.42236" xlink:href="#mb6d9ae12ba" y="293.835541"/>
     <use style="fill:#1f77b4;stroke:#1f77b4;" x="95.022553" xlink:href="#mb6d9ae12ba" y="293.422426"/>
     <use style="fill:#1f77b4;stroke:#1f77b4;" x="90.978693" xlink:href="#mb6d9ae12ba" y="292.513574"/>
     <use style="fill:#1f77b4;stroke:#1f77b4;" x="97.893693" xlink:href="#mb6d9ae12ba" y="292.348328"/>
     <use style="fill:#1f77b4;stroke:#1f77b4;" x="82.270915" xlink:href="#mb6d9ae12ba" y="292.183082"/>
     <use style="fill:#1f77b4;stroke:#1f77b4;" x="208.865294" xlink:href="#mb6d9ae12ba" y="291.769967"/>
     <use style="fill:#1f77b4;stroke:#1f77b4;" x="187.153233" xlink:href="#mb6d9ae12ba" y="291.439475"/>
     <use style="fill:#1f77b4;stroke:#1f77b4;" x="137.093859" xlink:href="#mb6d9ae12ba" y="291.27423"/>
     <use style="fill:#1f77b4;stroke:#1f77b4;" x="214.990394" xlink:href="#mb6d9ae12ba" y="290.448"/>
     <use style="fill:#1f77b4;stroke:#1f77b4;" x="208.412382" xlink:href="#mb6d9ae12ba" y="289.952262"/>
     <use style="fill:#1f77b4;stroke:#1f77b4;" x="103.049614" xlink:href="#mb6d9ae12ba" y="289.62177"/>
     <use style="fill:#1f77b4;stroke:#1f77b4;" x="93.843094" xlink:href="#mb6d9ae12ba" y="288.878164"/>
     <use style="fill:#1f77b4;stroke:#1f77b4;" x="169.257709" xlink:href="#mb6d9ae12ba" y="288.547672"/>
     <use style="fill:#1f77b4;stroke:#1f77b4;" x="257.173979" xlink:href="#mb6d9ae12ba" y="288.382426"/>
     <use style="fill:#1f77b4;stroke:#1f77b4;" x="258.726984" xlink:href="#mb6d9ae12ba" y="288.21718"/>
     <use style="fill:#1f77b4;stroke:#1f77b4;" x="263.651507" xlink:href="#mb6d9ae12ba" y="287.225705"/>
     <use style="fill:#1f77b4;stroke:#1f77b4;" x="103.272027" xlink:href="#mb6d9ae12ba" y="286.647344"/>
     <use style="fill:#1f77b4;stroke:#1f77b4;" x="89.652307" xlink:href="#mb6d9ae12ba" y="286.23423"/>
     <use style="fill:#1f77b4;stroke:#1f77b4;" x="218.926417" xlink:href="#mb6d9ae12ba" y="285.242754"/>
     <use style="fill:#1f77b4;stroke:#1f77b4;" x="94.672085" xlink:href="#mb6d9ae12ba" y="285.160131"/>
     <use style="fill:#1f77b4;stroke:#1f77b4;" x="263.772823" xlink:href="#mb6d9ae12ba" y="284.086033"/>
     <use style="fill:#1f77b4;stroke:#1f77b4;" x="173.459954" xlink:href="#mb6d9ae12ba" y="283.755541"/>
     <use style="fill:#1f77b4;stroke:#1f77b4;" x="102.341939" xlink:href="#mb6d9ae12ba" y="283.507672"/>
     <use style="fill:#1f77b4;stroke:#1f77b4;" x="130.666288" xlink:href="#mb6d9ae12ba" y="283.094557"/>
     <use style="fill:#1f77b4;stroke:#1f77b4;" x="179.9496" xlink:href="#mb6d9ae12ba" y="282.516197"/>
     <use style="fill:#1f77b4;stroke:#1f77b4;" x="148.940684" xlink:href="#mb6d9ae12ba" y="281.028984"/>
     <use style="fill:#1f77b4;stroke:#1f77b4;" x="148.877779" xlink:href="#mb6d9ae12ba" y="280.533246"/>
     <use style="fill:#1f77b4;stroke:#1f77b4;" x="156.222327" xlink:href="#mb6d9ae12ba" y="279.459148"/>
     <use style="fill:#1f77b4;stroke:#1f77b4;" x="110.025273" xlink:href="#mb6d9ae12ba" y="279.128656"/>
     <use style="fill:#1f77b4;stroke:#1f77b4;" x="114.048913" xlink:href="#mb6d9ae12ba" y="277.393574"/>
     <use style="fill:#1f77b4;stroke:#1f77b4;" x="243.820418" xlink:href="#mb6d9ae12ba" y="276.319475"/>
     <use style="fill:#1f77b4;stroke:#1f77b4;" x="166.310024" xlink:href="#mb6d9ae12ba" y="275.245377"/>
     <use style="fill:#1f77b4;stroke:#1f77b4;" x="304.712237" xlink:href="#mb6d9ae12ba" y="273.345049"/>
     <use style="fill:#1f77b4;stroke:#1f77b4;" x="114.141922" xlink:href="#mb6d9ae12ba" y="272.601443"/>
     <use style="fill:#1f77b4;stroke:#1f77b4;" x="163.462633" xlink:href="#mb6d9ae12ba" y="271.444721"/>
     <use style="fill:#1f77b4;stroke:#1f77b4;" x="258.570949" xlink:href="#mb6d9ae12ba" y="269.874885"/>
     <use style="fill:#1f77b4;stroke:#1f77b4;" x="242.967164" xlink:href="#mb6d9ae12ba" y="268.800787"/>
     <use style="fill:#1f77b4;stroke:#1f77b4;" x="201.584036" xlink:href="#mb6d9ae12ba" y="268.635541"/>
     <use style="fill:#1f77b4;stroke:#1f77b4;" x="277.056902" xlink:href="#mb6d9ae12ba" y="267.974557"/>
     <use style="fill:#1f77b4;stroke:#1f77b4;" x="223.967763" xlink:href="#mb6d9ae12ba" y="267.065705"/>
     <use style="fill:#1f77b4;stroke:#1f77b4;" x="194.825013" xlink:href="#mb6d9ae12ba" y="266.983082"/>
     <use style="fill:#1f77b4;stroke:#1f77b4;" x="138.224455" xlink:href="#mb6d9ae12ba" y="266.817836"/>
     <use style="fill:#1f77b4;stroke:#1f77b4;" x="151.245684" xlink:href="#mb6d9ae12ba" y="263.84341"/>
     <use style="fill:#1f77b4;stroke:#1f77b4;" x="344.083879" xlink:href="#mb6d9ae12ba" y="263.430295"/>
     <use style="fill:#1f77b4;stroke:#1f77b4;" x="342.393545" xlink:href="#mb6d9ae12ba" y="262.273574"/>
     <use style="fill:#1f77b4;stroke:#1f77b4;" x="223.873406" xlink:href="#mb6d9ae12ba" y="261.943082"/>
     <use style="fill:#1f77b4;stroke:#1f77b4;" x="132.3002" xlink:href="#mb6d9ae12ba" y="260.208"/>
     <use style="fill:#1f77b4;stroke:#1f77b4;" x="209.128723" xlink:href="#mb6d9ae12ba" y="259.712262"/>
     <use style="fill:#1f77b4;stroke:#1f77b4;" x="364.53233" xlink:href="#mb6d9ae12ba" y="257.811934"/>
     <use style="fill:#1f77b4;stroke:#1f77b4;" x="274.857043" xlink:href="#mb6d9ae12ba" y="257.646689"/>
     <use style="fill:#1f77b4;stroke:#1f77b4;" x="202.427469" xlink:href="#mb6d9ae12ba" y="256.489967"/>
     <use style="fill:#1f77b4;stroke:#1f77b4;" x="210.676943" xlink:href="#mb6d9ae12ba" y="255.168"/>
     <use style="fill:#1f77b4;stroke:#1f77b4;" x="236.395892" xlink:href="#mb6d9ae12ba" y="253.846033"/>
     <use style="fill:#1f77b4;stroke:#1f77b4;" x="241.421832" xlink:href="#mb6d9ae12ba" y="253.350295"/>
     <use style="fill:#1f77b4;stroke:#1f77b4;" x="161.665362" xlink:href="#mb6d9ae12ba" y="253.267672"/>
     <use style="fill:#1f77b4;stroke:#1f77b4;" x="264.298525" xlink:href="#mb6d9ae12ba" y="251.945705"/>
     <use style="fill:#1f77b4;stroke:#1f77b4;" x="283.345104" xlink:href="#mb6d9ae12ba" y="251.202098"/>
     <use style="fill:#1f77b4;stroke:#1f77b4;" x="257.197507" xlink:href="#mb6d9ae12ba" y="248.475541"/>
     <use style="fill:#1f77b4;stroke:#1f77b4;" x="243.553524" xlink:href="#mb6d9ae12ba" y="248.310295"/>
     <use style="fill:#1f77b4;stroke:#1f77b4;" x="296.538197" xlink:href="#mb6d9ae12ba" y="246.575213"/>
     <use style="fill:#1f77b4;stroke:#1f77b4;" x="245.84697" xlink:href="#mb6d9ae12ba" y="243.600787"/>
     <use style="fill:#1f77b4;stroke:#1f77b4;" x="170.284561" xlink:href="#mb6d9ae12ba" y="243.105049"/>
     <use style="fill:#1f77b4;stroke:#1f77b4;" x="266.522647" xlink:href="#mb6d9ae12ba" y="241.865705"/>
     <use style="fill:#1f77b4;stroke:#1f77b4;" x="268.312974" xlink:href="#mb6d9ae12ba" y="238.395541"/>
     <use style="fill:#1f77b4;stroke:#1f77b4;" x="300.302356" xlink:href="#mb6d9ae12ba" y="237.321443"/>
     <use style="fill:#1f77b4;stroke:#1f77b4;" x="296.78805" xlink:href="#mb6d9ae12ba" y="235.916852"/>
     <use style="fill:#1f77b4;stroke:#1f77b4;" x="213.305452" xlink:href="#mb6d9ae12ba" y="235.586361"/>
     <use style="fill:#1f77b4;stroke:#1f77b4;" x="164.186035" xlink:href="#mb6d9ae12ba" y="234.264393"/>
     <use style="fill:#1f77b4;stroke:#1f77b4;" x="277.40063" xlink:href="#mb6d9ae12ba" y="234.016525"/>
     <use style="fill:#1f77b4;stroke:#1f77b4;" x="323.630036" xlink:href="#mb6d9ae12ba" y="232.364066"/>
     <use style="fill:#1f77b4;stroke:#1f77b4;" x="297.425824" xlink:href="#mb6d9ae12ba" y="231.537836"/>
     <use style="fill:#1f77b4;stroke:#1f77b4;" x="273.09392" xlink:href="#mb6d9ae12ba" y="229.968"/>
     <use style="fill:#1f77b4;stroke:#1f77b4;" x="195.342627" xlink:href="#mb6d9ae12ba" y="229.885377"/>
     <use style="fill:#1f77b4;stroke:#1f77b4;" x="305.319439" xlink:href="#mb6d9ae12ba" y="227.819803"/>
     <use style="fill:#1f77b4;stroke:#1f77b4;" x="299.008321" xlink:href="#mb6d9ae12ba" y="226.745705"/>
     <use style="fill:#1f77b4;stroke:#1f77b4;" x="246.970585" xlink:href="#mb6d9ae12ba" y="225.75423"/>
     <use style="fill:#1f77b4;stroke:#1f77b4;" x="240.779436" xlink:href="#mb6d9ae12ba" y="224.762754"/>
     <use style="fill:#1f77b4;stroke:#1f77b4;" x="239.644459" xlink:href="#mb6d9ae12ba" y="224.019148"/>
     <use style="fill:#1f77b4;stroke:#1f77b4;" x="323.396647" xlink:href="#mb6d9ae12ba" y="222.366689"/>
     <use style="fill:#1f77b4;stroke:#1f77b4;" x="288.602122" xlink:href="#mb6d9ae12ba" y="219.970623"/>
     <use style="fill:#1f77b4;stroke:#1f77b4;" x="226.598197" xlink:href="#mb6d9ae12ba" y="219.474885"/>
     <use style="fill:#1f77b4;stroke:#1f77b4;" x="268.854607" xlink:href="#mb6d9ae12ba" y="219.309639"/>
     <use style="fill:#1f77b4;stroke:#1f77b4;" x="305.159481" xlink:href="#mb6d9ae12ba" y="217.822426"/>
     <use style="fill:#1f77b4;stroke:#1f77b4;" x="275.022841" xlink:href="#mb6d9ae12ba" y="216.748328"/>
     <use style="fill:#1f77b4;stroke:#1f77b4;" x="194.836567" xlink:href="#mb6d9ae12ba" y="214.269639"/>
     <use style="fill:#1f77b4;stroke:#1f77b4;" x="257.137782" xlink:href="#mb6d9ae12ba" y="212.121443"/>
     <use style="fill:#1f77b4;stroke:#1f77b4;" x="252.927191" xlink:href="#mb6d9ae12ba" y="211.047344"/>
     <use style="fill:#1f77b4;stroke:#1f77b4;" x="275.411051" xlink:href="#mb6d9ae12ba" y="209.725377"/>
     <use style="fill:#1f77b4;stroke:#1f77b4;" x="335.967274" xlink:href="#mb6d9ae12ba" y="208.568656"/>
     <use style="fill:#1f77b4;stroke:#1f77b4;" x="319.972365" xlink:href="#mb6d9ae12ba" y="208.320787"/>
     <use style="fill:#1f77b4;stroke:#1f77b4;" x="198.221855" xlink:href="#mb6d9ae12ba" y="208.238164"/>
     <use style="fill:#1f77b4;stroke:#1f77b4;" x="258.313612" xlink:href="#mb6d9ae12ba" y="207.57718"/>
     <use style="fill:#1f77b4;stroke:#1f77b4;" x="319.699404" xlink:href="#mb6d9ae12ba" y="207.246689"/>
     <use style="fill:#1f77b4;stroke:#1f77b4;" x="327.531013" xlink:href="#mb6d9ae12ba" y="205.015869"/>
     <use style="fill:#1f77b4;stroke:#1f77b4;" x="238.482523" xlink:href="#mb6d9ae12ba" y="203.693902"/>
     <use style="fill:#1f77b4;stroke:#1f77b4;" x="319.605047" xlink:href="#mb6d9ae12ba" y="202.785049"/>
     <use style="fill:#1f77b4;stroke:#1f77b4;" x="308.829509" xlink:href="#mb6d9ae12ba" y="202.454557"/>
     <use style="fill:#1f77b4;stroke:#1f77b4;" x="268.140191" xlink:href="#mb6d9ae12ba" y="200.967344"/>
     <use style="fill:#1f77b4;stroke:#1f77b4;" x="234.360482" xlink:href="#mb6d9ae12ba" y="200.719475"/>
     <use style="fill:#1f77b4;stroke:#1f77b4;" x="224.493464" xlink:href="#mb6d9ae12ba" y="199.067016"/>
     <use style="fill:#1f77b4;stroke:#1f77b4;" x="325.668141" xlink:href="#mb6d9ae12ba" y="196.91882"/>
     <use style="fill:#1f77b4;stroke:#1f77b4;" x="274.311121" xlink:href="#mb6d9ae12ba" y="195.018492"/>
     <use style="fill:#1f77b4;stroke:#1f77b4;" x="266.838069" xlink:href="#mb6d9ae12ba" y="194.192262"/>
     <use style="fill:#1f77b4;stroke:#1f77b4;" x="310.061538" xlink:href="#mb6d9ae12ba" y="189.400131"/>
     <use style="fill:#1f77b4;stroke:#1f77b4;" x="292.858284" xlink:href="#mb6d9ae12ba" y="188.326033"/>
     <use style="fill:#1f77b4;stroke:#1f77b4;" x="295.827152" xlink:href="#mb6d9ae12ba" y="188.160787"/>
     <use style="fill:#1f77b4;stroke:#1f77b4;" x="295.692356" xlink:href="#mb6d9ae12ba" y="182.046689"/>
     <use style="fill:#1f77b4;stroke:#1f77b4;" x="237.107611" xlink:href="#mb6d9ae12ba" y="180.311607"/>
     <use style="fill:#1f77b4;stroke:#1f77b4;" x="270.02463" xlink:href="#mb6d9ae12ba" y="175.519475"/>
     <use style="fill:#1f77b4;stroke:#1f77b4;" x="312.526219" xlink:href="#mb6d9ae12ba" y="175.023738"/>
     <use style="fill:#1f77b4;stroke:#1f77b4;" x="349.866598" xlink:href="#mb6d9ae12ba" y="174.693246"/>
     <use style="fill:#1f77b4;stroke:#1f77b4;" x="308.110857" xlink:href="#mb6d9ae12ba" y="171.553574"/>
     <use style="fill:#1f77b4;stroke:#1f77b4;" x="375.747301" xlink:href="#mb6d9ae12ba" y="168.744393"/>
     <use style="fill:#1f77b4;stroke:#1f77b4;" x="243.610138" xlink:href="#mb6d9ae12ba" y="167.752918"/>
     <use style="fill:#1f77b4;stroke:#1f77b4;" x="370.57116" xlink:href="#mb6d9ae12ba" y="167.339803"/>
     <use style="fill:#1f77b4;stroke:#1f77b4;" x="304.425168" xlink:href="#mb6d9ae12ba" y="166.926689"/>
     <use style="fill:#1f77b4;stroke:#1f77b4;" x="364.311265" xlink:href="#mb6d9ae12ba" y="160.482098"/>
     <use style="fill:#1f77b4;stroke:#1f77b4;" x="369.852252" xlink:href="#mb6d9ae12ba" y="149.658492"/>
     <use style="fill:#1f77b4;stroke:#1f77b4;" x="382.945372" xlink:href="#mb6d9ae12ba" y="142.139803"/>
     <use style="fill:#1f77b4;stroke:#1f77b4;" x="346.442797" xlink:href="#mb6d9ae12ba" y="136.769311"/>
     <use style="fill:#1f77b4;stroke:#1f77b4;" x="334.419054" xlink:href="#mb6d9ae12ba" y="122.475541"/>
     <use style="fill:#1f77b4;stroke:#1f77b4;" x="380.454354" xlink:href="#mb6d9ae12ba" y="122.392918"/>
     <use style="fill:#1f77b4;stroke:#1f77b4;" x="326.881299" xlink:href="#mb6d9ae12ba" y="97.688656"/>
     <use style="fill:#1f77b4;stroke:#1f77b4;" x="368.678634" xlink:href="#mb6d9ae12ba" y="81.329311"/>
     <use style="fill:#1f77b4;stroke:#1f77b4;" x="369.632985" xlink:href="#mb6d9ae12ba" y="79.511607"/>
     <use style="fill:#1f77b4;stroke:#1f77b4;" x="380.017617" xlink:href="#mb6d9ae12ba" y="79.263738"/>
     <use style="fill:#1f77b4;stroke:#1f77b4;" x="393.103547" xlink:href="#mb6d9ae12ba" y="77.528656"/>
     <use style="fill:#1f77b4;stroke:#1f77b4;" x="335.244001" xlink:href="#mb6d9ae12ba" y="61.665049"/>
     <use style="fill:#1f77b4;stroke:#1f77b4;" x="395.171308" xlink:href="#mb6d9ae12ba" y="54.97259"/>
     <use style="fill:#1f77b4;stroke:#1f77b4;" x="398.487273" xlink:href="#mb6d9ae12ba" y="53.568"/>
    </g>
   </g>
   <g id="matplotlib.axis_1">
    <g id="xtick_1">
     <g id="line2d_1">
      <defs>
       <path d="M 0 0 
L 0 3.5 
" id="md1f0e872f6" style="stroke:#000000;stroke-width:0.8;"/>
      </defs>
      <g>
       <use style="stroke:#000000;stroke-width:0.8;" x="73.832727" xlink:href="#md1f0e872f6" y="307.584"/>
      </g>
     </g>
     <g id="text_1">
      <!-- 0 -->
      <g transform="translate(70.651477 322.182437)scale(0.1 -0.1)">
       <defs>
        <path d="M 2034 4250 
Q 1547 4250 1301 3770 
Q 1056 3291 1056 2328 
Q 1056 1369 1301 889 
Q 1547 409 2034 409 
Q 2525 409 2770 889 
Q 3016 1369 3016 2328 
Q 3016 3291 2770 3770 
Q 2525 4250 2034 4250 
z
M 2034 4750 
Q 2819 4750 3233 4129 
Q 3647 3509 3647 2328 
Q 3647 1150 3233 529 
Q 2819 -91 2034 -91 
Q 1250 -91 836 529 
Q 422 1150 422 2328 
Q 422 3509 836 4129 
Q 1250 4750 2034 4750 
z
" id="DejaVuSans-30" transform="scale(0.015625)"/>
       </defs>
       <use xlink:href="#DejaVuSans-30"/>
      </g>
     </g>
    </g>
    <g id="xtick_2">
     <g id="line2d_2">
      <g>
       <use style="stroke:#000000;stroke-width:0.8;" x="114.271325" xlink:href="#md1f0e872f6" y="307.584"/>
      </g>
     </g>
     <g id="text_2">
      <!-- 500 -->
      <g transform="translate(104.727575 322.182437)scale(0.1 -0.1)">
       <defs>
        <path d="M 691 4666 
L 3169 4666 
L 3169 4134 
L 1269 4134 
L 1269 2991 
Q 1406 3038 1543 3061 
Q 1681 3084 1819 3084 
Q 2600 3084 3056 2656 
Q 3513 2228 3513 1497 
Q 3513 744 3044 326 
Q 2575 -91 1722 -91 
Q 1428 -91 1123 -41 
Q 819 9 494 109 
L 494 744 
Q 775 591 1075 516 
Q 1375 441 1709 441 
Q 2250 441 2565 725 
Q 2881 1009 2881 1497 
Q 2881 1984 2565 2268 
Q 2250 2553 1709 2553 
Q 1456 2553 1204 2497 
Q 953 2441 691 2322 
L 691 4666 
z
" id="DejaVuSans-35" transform="scale(0.015625)"/>
       </defs>
       <use xlink:href="#DejaVuSans-35"/>
       <use x="63.623047" xlink:href="#DejaVuSans-30"/>
       <use x="127.246094" xlink:href="#DejaVuSans-30"/>
      </g>
     </g>
    </g>
    <g id="xtick_3">
     <g id="line2d_3">
      <g>
       <use style="stroke:#000000;stroke-width:0.8;" x="154.709924" xlink:href="#md1f0e872f6" y="307.584"/>
      </g>
     </g>
     <g id="text_3">
      <!-- 1000 -->
      <g transform="translate(141.984924 322.182437)scale(0.1 -0.1)">
       <defs>
        <path d="M 794 531 
L 1825 531 
L 1825 4091 
L 703 3866 
L 703 4441 
L 1819 4666 
L 2450 4666 
L 2450 531 
L 3481 531 
L 3481 0 
L 794 0 
L 794 531 
z
" id="DejaVuSans-31" transform="scale(0.015625)"/>
       </defs>
       <use xlink:href="#DejaVuSans-31"/>
       <use x="63.623047" xlink:href="#DejaVuSans-30"/>
       <use x="127.246094" xlink:href="#DejaVuSans-30"/>
       <use x="190.869141" xlink:href="#DejaVuSans-30"/>
      </g>
     </g>
    </g>
    <g id="xtick_4">
     <g id="line2d_4">
      <g>
       <use style="stroke:#000000;stroke-width:0.8;" x="195.148522" xlink:href="#md1f0e872f6" y="307.584"/>
      </g>
     </g>
     <g id="text_4">
      <!-- 1500 -->
      <g transform="translate(182.423522 322.182437)scale(0.1 -0.1)">
       <use xlink:href="#DejaVuSans-31"/>
       <use x="63.623047" xlink:href="#DejaVuSans-35"/>
       <use x="127.246094" xlink:href="#DejaVuSans-30"/>
       <use x="190.869141" xlink:href="#DejaVuSans-30"/>
      </g>
     </g>
    </g>
    <g id="xtick_5">
     <g id="line2d_5">
      <g>
       <use style="stroke:#000000;stroke-width:0.8;" x="235.58712" xlink:href="#md1f0e872f6" y="307.584"/>
      </g>
     </g>
     <g id="text_5">
      <!-- 2000 -->
      <g transform="translate(222.86212 322.182437)scale(0.1 -0.1)">
       <defs>
        <path d="M 1228 531 
L 3431 531 
L 3431 0 
L 469 0 
L 469 531 
Q 828 903 1448 1529 
Q 2069 2156 2228 2338 
Q 2531 2678 2651 2914 
Q 2772 3150 2772 3378 
Q 2772 3750 2511 3984 
Q 2250 4219 1831 4219 
Q 1534 4219 1204 4116 
Q 875 4013 500 3803 
L 500 4441 
Q 881 4594 1212 4672 
Q 1544 4750 1819 4750 
Q 2544 4750 2975 4387 
Q 3406 4025 3406 3419 
Q 3406 3131 3298 2873 
Q 3191 2616 2906 2266 
Q 2828 2175 2409 1742 
Q 1991 1309 1228 531 
z
" id="DejaVuSans-32" transform="scale(0.015625)"/>
       </defs>
       <use xlink:href="#DejaVuSans-32"/>
       <use x="63.623047" xlink:href="#DejaVuSans-30"/>
       <use x="127.246094" xlink:href="#DejaVuSans-30"/>
       <use x="190.869141" xlink:href="#DejaVuSans-30"/>
      </g>
     </g>
    </g>
    <g id="xtick_6">
     <g id="line2d_6">
      <g>
       <use style="stroke:#000000;stroke-width:0.8;" x="276.025718" xlink:href="#md1f0e872f6" y="307.584"/>
      </g>
     </g>
     <g id="text_6">
      <!-- 2500 -->
      <g transform="translate(263.300718 322.182437)scale(0.1 -0.1)">
       <use xlink:href="#DejaVuSans-32"/>
       <use x="63.623047" xlink:href="#DejaVuSans-35"/>
       <use x="127.246094" xlink:href="#DejaVuSans-30"/>
       <use x="190.869141" xlink:href="#DejaVuSans-30"/>
      </g>
     </g>
    </g>
    <g id="xtick_7">
     <g id="line2d_7">
      <g>
       <use style="stroke:#000000;stroke-width:0.8;" x="316.464316" xlink:href="#md1f0e872f6" y="307.584"/>
      </g>
     </g>
     <g id="text_7">
      <!-- 3000 -->
      <g transform="translate(303.739316 322.182437)scale(0.1 -0.1)">
       <defs>
        <path d="M 2597 2516 
Q 3050 2419 3304 2112 
Q 3559 1806 3559 1356 
Q 3559 666 3084 287 
Q 2609 -91 1734 -91 
Q 1441 -91 1130 -33 
Q 819 25 488 141 
L 488 750 
Q 750 597 1062 519 
Q 1375 441 1716 441 
Q 2309 441 2620 675 
Q 2931 909 2931 1356 
Q 2931 1769 2642 2001 
Q 2353 2234 1838 2234 
L 1294 2234 
L 1294 2753 
L 1863 2753 
Q 2328 2753 2575 2939 
Q 2822 3125 2822 3475 
Q 2822 3834 2567 4026 
Q 2313 4219 1838 4219 
Q 1578 4219 1281 4162 
Q 984 4106 628 3988 
L 628 4550 
Q 988 4650 1302 4700 
Q 1616 4750 1894 4750 
Q 2613 4750 3031 4423 
Q 3450 4097 3450 3541 
Q 3450 3153 3228 2886 
Q 3006 2619 2597 2516 
z
" id="DejaVuSans-33" transform="scale(0.015625)"/>
       </defs>
       <use xlink:href="#DejaVuSans-33"/>
       <use x="63.623047" xlink:href="#DejaVuSans-30"/>
       <use x="127.246094" xlink:href="#DejaVuSans-30"/>
       <use x="190.869141" xlink:href="#DejaVuSans-30"/>
      </g>
     </g>
    </g>
    <g id="xtick_8">
     <g id="line2d_8">
      <g>
       <use style="stroke:#000000;stroke-width:0.8;" x="356.902914" xlink:href="#md1f0e872f6" y="307.584"/>
      </g>
     </g>
     <g id="text_8">
      <!-- 3500 -->
      <g transform="translate(344.177914 322.182437)scale(0.1 -0.1)">
       <use xlink:href="#DejaVuSans-33"/>
       <use x="63.623047" xlink:href="#DejaVuSans-35"/>
       <use x="127.246094" xlink:href="#DejaVuSans-30"/>
       <use x="190.869141" xlink:href="#DejaVuSans-30"/>
      </g>
     </g>
    </g>
    <g id="xtick_9">
     <g id="line2d_9">
      <g>
       <use style="stroke:#000000;stroke-width:0.8;" x="397.341512" xlink:href="#md1f0e872f6" y="307.584"/>
      </g>
     </g>
     <g id="text_9">
      <!-- 4000 -->
      <g transform="translate(384.616512 322.182437)scale(0.1 -0.1)">
       <defs>
        <path d="M 2419 4116 
L 825 1625 
L 2419 1625 
L 2419 4116 
z
M 2253 4666 
L 3047 4666 
L 3047 1625 
L 3713 1625 
L 3713 1100 
L 3047 1100 
L 3047 0 
L 2419 0 
L 2419 1100 
L 313 1100 
L 313 1709 
L 2253 4666 
z
" id="DejaVuSans-34" transform="scale(0.015625)"/>
       </defs>
       <use xlink:href="#DejaVuSans-34"/>
       <use x="63.623047" xlink:href="#DejaVuSans-30"/>
       <use x="127.246094" xlink:href="#DejaVuSans-30"/>
       <use x="190.869141" xlink:href="#DejaVuSans-30"/>
      </g>
     </g>
    </g>
    <g id="text_10">
     <!-- Avg. Ranking -->
     <g transform="translate(203.499844 335.860562)scale(0.1 -0.1)">
      <defs>
       <path d="M 2188 4044 
L 1331 1722 
L 3047 1722 
L 2188 4044 
z
M 1831 4666 
L 2547 4666 
L 4325 0 
L 3669 0 
L 3244 1197 
L 1141 1197 
L 716 0 
L 50 0 
L 1831 4666 
z
" id="DejaVuSans-41" transform="scale(0.015625)"/>
       <path d="M 191 3500 
L 800 3500 
L 1894 563 
L 2988 3500 
L 3597 3500 
L 2284 0 
L 1503 0 
L 191 3500 
z
" id="DejaVuSans-76" transform="scale(0.015625)"/>
       <path d="M 2906 1791 
Q 2906 2416 2648 2759 
Q 2391 3103 1925 3103 
Q 1463 3103 1205 2759 
Q 947 2416 947 1791 
Q 947 1169 1205 825 
Q 1463 481 1925 481 
Q 2391 481 2648 825 
Q 2906 1169 2906 1791 
z
M 3481 434 
Q 3481 -459 3084 -895 
Q 2688 -1331 1869 -1331 
Q 1566 -1331 1297 -1286 
Q 1028 -1241 775 -1147 
L 775 -588 
Q 1028 -725 1275 -790 
Q 1522 -856 1778 -856 
Q 2344 -856 2625 -561 
Q 2906 -266 2906 331 
L 2906 616 
Q 2728 306 2450 153 
Q 2172 0 1784 0 
Q 1141 0 747 490 
Q 353 981 353 1791 
Q 353 2603 747 3093 
Q 1141 3584 1784 3584 
Q 2172 3584 2450 3431 
Q 2728 3278 2906 2969 
L 2906 3500 
L 3481 3500 
L 3481 434 
z
" id="DejaVuSans-67" transform="scale(0.015625)"/>
       <path d="M 684 794 
L 1344 794 
L 1344 0 
L 684 0 
L 684 794 
z
" id="DejaVuSans-2e" transform="scale(0.015625)"/>
       <path id="DejaVuSans-20" transform="scale(0.015625)"/>
       <path d="M 2841 2188 
Q 3044 2119 3236 1894 
Q 3428 1669 3622 1275 
L 4263 0 
L 3584 0 
L 2988 1197 
Q 2756 1666 2539 1819 
Q 2322 1972 1947 1972 
L 1259 1972 
L 1259 0 
L 628 0 
L 628 4666 
L 2053 4666 
Q 2853 4666 3247 4331 
Q 3641 3997 3641 3322 
Q 3641 2881 3436 2590 
Q 3231 2300 2841 2188 
z
M 1259 4147 
L 1259 2491 
L 2053 2491 
Q 2509 2491 2742 2702 
Q 2975 2913 2975 3322 
Q 2975 3731 2742 3939 
Q 2509 4147 2053 4147 
L 1259 4147 
z
" id="DejaVuSans-52" transform="scale(0.015625)"/>
       <path d="M 2194 1759 
Q 1497 1759 1228 1600 
Q 959 1441 959 1056 
Q 959 750 1161 570 
Q 1363 391 1709 391 
Q 2188 391 2477 730 
Q 2766 1069 2766 1631 
L 2766 1759 
L 2194 1759 
z
M 3341 1997 
L 3341 0 
L 2766 0 
L 2766 531 
Q 2569 213 2275 61 
Q 1981 -91 1556 -91 
Q 1019 -91 701 211 
Q 384 513 384 1019 
Q 384 1609 779 1909 
Q 1175 2209 1959 2209 
L 2766 2209 
L 2766 2266 
Q 2766 2663 2505 2880 
Q 2244 3097 1772 3097 
Q 1472 3097 1187 3025 
Q 903 2953 641 2809 
L 641 3341 
Q 956 3463 1253 3523 
Q 1550 3584 1831 3584 
Q 2591 3584 2966 3190 
Q 3341 2797 3341 1997 
z
" id="DejaVuSans-61" transform="scale(0.015625)"/>
       <path d="M 3513 2113 
L 3513 0 
L 2938 0 
L 2938 2094 
Q 2938 2591 2744 2837 
Q 2550 3084 2163 3084 
Q 1697 3084 1428 2787 
Q 1159 2491 1159 1978 
L 1159 0 
L 581 0 
L 581 3500 
L 1159 3500 
L 1159 2956 
Q 1366 3272 1645 3428 
Q 1925 3584 2291 3584 
Q 2894 3584 3203 3211 
Q 3513 2838 3513 2113 
z
" id="DejaVuSans-6e" transform="scale(0.015625)"/>
       <path d="M 581 4863 
L 1159 4863 
L 1159 1991 
L 2875 3500 
L 3609 3500 
L 1753 1863 
L 3688 0 
L 2938 0 
L 1159 1709 
L 1159 0 
L 581 0 
L 581 4863 
z
" id="DejaVuSans-6b" transform="scale(0.015625)"/>
       <path d="M 603 3500 
L 1178 3500 
L 1178 0 
L 603 0 
L 603 3500 
z
M 603 4863 
L 1178 4863 
L 1178 4134 
L 603 4134 
L 603 4863 
z
" id="DejaVuSans-69" transform="scale(0.015625)"/>
      </defs>
      <use xlink:href="#DejaVuSans-41"/>
      <use x="62.533203" xlink:href="#DejaVuSans-76"/>
      <use x="121.712891" xlink:href="#DejaVuSans-67"/>
      <use x="185.189453" xlink:href="#DejaVuSans-2e"/>
      <use x="216.976562" xlink:href="#DejaVuSans-20"/>
      <use x="248.763672" xlink:href="#DejaVuSans-52"/>
      <use x="315.996094" xlink:href="#DejaVuSans-61"/>
      <use x="377.275391" xlink:href="#DejaVuSans-6e"/>
      <use x="440.654297" xlink:href="#DejaVuSans-6b"/>
      <use x="498.564453" xlink:href="#DejaVuSans-69"/>
      <use x="526.347656" xlink:href="#DejaVuSans-6e"/>
      <use x="589.726562" xlink:href="#DejaVuSans-67"/>
     </g>
    </g>
   </g>
   <g id="matplotlib.axis_2">
    <g id="ytick_1">
     <g id="line2d_10">
      <defs>
       <path d="M 0 0 
L -3.5 0 
" id="mab7a2407e4" style="stroke:#000000;stroke-width:0.8;"/>
      </defs>
      <g>
       <use style="stroke:#000000;stroke-width:0.8;" x="57.6" xlink:href="#mab7a2407e4" y="295.570623"/>
      </g>
     </g>
     <g id="text_11">
      <!-- 0 -->
      <g transform="translate(44.2375 299.369842)scale(0.1 -0.1)">
       <use xlink:href="#DejaVuSans-30"/>
      </g>
     </g>
    </g>
    <g id="ytick_2">
     <g id="line2d_11">
      <g>
       <use style="stroke:#000000;stroke-width:0.8;" x="57.6" xlink:href="#mab7a2407e4" y="254.259148"/>
      </g>
     </g>
     <g id="text_12">
      <!-- 500 -->
      <g transform="translate(31.5125 258.058366)scale(0.1 -0.1)">
       <use xlink:href="#DejaVuSans-35"/>
       <use x="63.623047" xlink:href="#DejaVuSans-30"/>
       <use x="127.246094" xlink:href="#DejaVuSans-30"/>
      </g>
     </g>
    </g>
    <g id="ytick_3">
     <g id="line2d_12">
      <g>
       <use style="stroke:#000000;stroke-width:0.8;" x="57.6" xlink:href="#mab7a2407e4" y="212.947672"/>
      </g>
     </g>
     <g id="text_13">
      <!-- 1000 -->
      <g transform="translate(25.15 216.746891)scale(0.1 -0.1)">
       <use xlink:href="#DejaVuSans-31"/>
       <use x="63.623047" xlink:href="#DejaVuSans-30"/>
       <use x="127.246094" xlink:href="#DejaVuSans-30"/>
       <use x="190.869141" xlink:href="#DejaVuSans-30"/>
      </g>
     </g>
    </g>
    <g id="ytick_4">
     <g id="line2d_13">
      <g>
       <use style="stroke:#000000;stroke-width:0.8;" x="57.6" xlink:href="#mab7a2407e4" y="171.636197"/>
      </g>
     </g>
     <g id="text_14">
      <!-- 1500 -->
      <g transform="translate(25.15 175.435415)scale(0.1 -0.1)">
       <use xlink:href="#DejaVuSans-31"/>
       <use x="63.623047" xlink:href="#DejaVuSans-35"/>
       <use x="127.246094" xlink:href="#DejaVuSans-30"/>
       <use x="190.869141" xlink:href="#DejaVuSans-30"/>
      </g>
     </g>
    </g>
    <g id="ytick_5">
     <g id="line2d_14">
      <g>
       <use style="stroke:#000000;stroke-width:0.8;" x="57.6" xlink:href="#mab7a2407e4" y="130.324721"/>
      </g>
     </g>
     <g id="text_15">
      <!-- 2000 -->
      <g transform="translate(25.15 134.12394)scale(0.1 -0.1)">
       <use xlink:href="#DejaVuSans-32"/>
       <use x="63.623047" xlink:href="#DejaVuSans-30"/>
       <use x="127.246094" xlink:href="#DejaVuSans-30"/>
       <use x="190.869141" xlink:href="#DejaVuSans-30"/>
      </g>
     </g>
    </g>
    <g id="ytick_6">
     <g id="line2d_15">
      <g>
       <use style="stroke:#000000;stroke-width:0.8;" x="57.6" xlink:href="#mab7a2407e4" y="89.013246"/>
      </g>
     </g>
     <g id="text_16">
      <!-- 2500 -->
      <g transform="translate(25.15 92.812465)scale(0.1 -0.1)">
       <use xlink:href="#DejaVuSans-32"/>
       <use x="63.623047" xlink:href="#DejaVuSans-35"/>
       <use x="127.246094" xlink:href="#DejaVuSans-30"/>
       <use x="190.869141" xlink:href="#DejaVuSans-30"/>
      </g>
     </g>
    </g>
    <g id="ytick_7">
     <g id="line2d_16">
      <g>
       <use style="stroke:#000000;stroke-width:0.8;" x="57.6" xlink:href="#mab7a2407e4" y="47.70177"/>
      </g>
     </g>
     <g id="text_17">
      <!-- 3000 -->
      <g transform="translate(25.15 51.500989)scale(0.1 -0.1)">
       <use xlink:href="#DejaVuSans-33"/>
       <use x="63.623047" xlink:href="#DejaVuSans-30"/>
       <use x="127.246094" xlink:href="#DejaVuSans-30"/>
       <use x="190.869141" xlink:href="#DejaVuSans-30"/>
      </g>
     </g>
    </g>
    <g id="text_18">
     <!-- Highest Ranking -->
     <g transform="translate(19.070312 215.472531)rotate(-90)scale(0.1 -0.1)">
      <defs>
       <path d="M 628 4666 
L 1259 4666 
L 1259 2753 
L 3553 2753 
L 3553 4666 
L 4184 4666 
L 4184 0 
L 3553 0 
L 3553 2222 
L 1259 2222 
L 1259 0 
L 628 0 
L 628 4666 
z
" id="DejaVuSans-48" transform="scale(0.015625)"/>
       <path d="M 3513 2113 
L 3513 0 
L 2938 0 
L 2938 2094 
Q 2938 2591 2744 2837 
Q 2550 3084 2163 3084 
Q 1697 3084 1428 2787 
Q 1159 2491 1159 1978 
L 1159 0 
L 581 0 
L 581 4863 
L 1159 4863 
L 1159 2956 
Q 1366 3272 1645 3428 
Q 1925 3584 2291 3584 
Q 2894 3584 3203 3211 
Q 3513 2838 3513 2113 
z
" id="DejaVuSans-68" transform="scale(0.015625)"/>
       <path d="M 3597 1894 
L 3597 1613 
L 953 1613 
Q 991 1019 1311 708 
Q 1631 397 2203 397 
Q 2534 397 2845 478 
Q 3156 559 3463 722 
L 3463 178 
Q 3153 47 2828 -22 
Q 2503 -91 2169 -91 
Q 1331 -91 842 396 
Q 353 884 353 1716 
Q 353 2575 817 3079 
Q 1281 3584 2069 3584 
Q 2775 3584 3186 3129 
Q 3597 2675 3597 1894 
z
M 3022 2063 
Q 3016 2534 2758 2815 
Q 2500 3097 2075 3097 
Q 1594 3097 1305 2825 
Q 1016 2553 972 2059 
L 3022 2063 
z
" id="DejaVuSans-65" transform="scale(0.015625)"/>
       <path d="M 2834 3397 
L 2834 2853 
Q 2591 2978 2328 3040 
Q 2066 3103 1784 3103 
Q 1356 3103 1142 2972 
Q 928 2841 928 2578 
Q 928 2378 1081 2264 
Q 1234 2150 1697 2047 
L 1894 2003 
Q 2506 1872 2764 1633 
Q 3022 1394 3022 966 
Q 3022 478 2636 193 
Q 2250 -91 1575 -91 
Q 1294 -91 989 -36 
Q 684 19 347 128 
L 347 722 
Q 666 556 975 473 
Q 1284 391 1588 391 
Q 1994 391 2212 530 
Q 2431 669 2431 922 
Q 2431 1156 2273 1281 
Q 2116 1406 1581 1522 
L 1381 1569 
Q 847 1681 609 1914 
Q 372 2147 372 2553 
Q 372 3047 722 3315 
Q 1072 3584 1716 3584 
Q 2034 3584 2315 3537 
Q 2597 3491 2834 3397 
z
" id="DejaVuSans-73" transform="scale(0.015625)"/>
       <path d="M 1172 4494 
L 1172 3500 
L 2356 3500 
L 2356 3053 
L 1172 3053 
L 1172 1153 
Q 1172 725 1289 603 
Q 1406 481 1766 481 
L 2356 481 
L 2356 0 
L 1766 0 
Q 1100 0 847 248 
Q 594 497 594 1153 
L 594 3053 
L 172 3053 
L 172 3500 
L 594 3500 
L 594 4494 
L 1172 4494 
z
" id="DejaVuSans-74" transform="scale(0.015625)"/>
      </defs>
      <use xlink:href="#DejaVuSans-48"/>
      <use x="75.195312" xlink:href="#DejaVuSans-69"/>
      <use x="102.978516" xlink:href="#DejaVuSans-67"/>
      <use x="166.455078" xlink:href="#DejaVuSans-68"/>
      <use x="229.833984" xlink:href="#DejaVuSans-65"/>
      <use x="291.357422" xlink:href="#DejaVuSans-73"/>
      <use x="343.457031" xlink:href="#DejaVuSans-74"/>
      <use x="382.666016" xlink:href="#DejaVuSans-20"/>
      <use x="414.453125" xlink:href="#DejaVuSans-52"/>
      <use x="481.685547" xlink:href="#DejaVuSans-61"/>
      <use x="542.964844" xlink:href="#DejaVuSans-6e"/>
      <use x="606.34375" xlink:href="#DejaVuSans-6b"/>
      <use x="664.253906" xlink:href="#DejaVuSans-69"/>
      <use x="692.037109" xlink:href="#DejaVuSans-6e"/>
      <use x="755.416016" xlink:href="#DejaVuSans-67"/>
     </g>
    </g>
   </g>
   <g id="LineCollection_1">
    <path clip-path="url(#pa9b7385c9b)" d="M 73.832727 279.046033 
L 316.464316 279.046033 
" style="fill:none;stroke:#ff0000;"/>
   </g>
   <g id="patch_3">
    <path d="M 57.6 307.584 
L 57.6 41.472 
" style="fill:none;stroke:#000000;stroke-linecap:square;stroke-linejoin:miter;stroke-width:0.8;"/>
   </g>
   <g id="patch_4">
    <path d="M 414.72 307.584 
L 414.72 41.472 
" style="fill:none;stroke:#000000;stroke-linecap:square;stroke-linejoin:miter;stroke-width:0.8;"/>
   </g>
   <g id="patch_5">
    <path d="M 57.6 307.584 
L 414.72 307.584 
" style="fill:none;stroke:#000000;stroke-linecap:square;stroke-linejoin:miter;stroke-width:0.8;"/>
   </g>
   <g id="patch_6">
    <path d="M 57.6 41.472 
L 414.72 41.472 
" style="fill:none;stroke:#000000;stroke-linecap:square;stroke-linejoin:miter;stroke-width:0.8;"/>
   </g>
  </g>
 </g>
 <defs>
  <clipPath id="pa9b7385c9b">
   <rect height="266.112" width="357.12" x="57.6" y="41.472"/>
  </clipPath>
 </defs>
</svg>
