<?xml version="1.0" encoding="utf-8" standalone="no"?>
<!DOCTYPE svg PUBLIC "-//W3C//DTD SVG 1.1//EN"
  "http://www.w3.org/Graphics/SVG/1.1/DTD/svg11.dtd">
<svg height="345.6pt" version="1.1" viewBox="0 0 460.8 345.6" width="460.8pt" xmlns="http://www.w3.org/2000/svg" xmlns:xlink="http://www.w3.org/1999/xlink">
 <metadata>
  <rdf:RDF xmlns:cc="http://creativecommons.org/ns#" xmlns:dc="http://purl.org/dc/elements/1.1/" xmlns:rdf="http://www.w3.org/1999/02/22-rdf-syntax-ns#">
   <cc:Work>
    <dc:type rdf:resource="http://purl.org/dc/dcmitype/StillImage"/>
    <dc:date>2021-09-06T20:39:51.990957</dc:date>
    <dc:format>image/svg+xml</dc:format>
    <dc:creator>
     <cc:Agent>
      <dc:title>Matplotlib v3.4.3, https://matplotlib.org/</dc:title>
     </cc:Agent>
    </dc:creator>
   </cc:Work>
  </rdf:RDF>
 </metadata>
 <defs>
  <style type="text/css">*{stroke-linecap:butt;stroke-linejoin:round;}</style>
 </defs>
 <g id="figure_1">
  <g id="patch_1">
   <path d="M 0 345.6 
L 460.8 345.6 
L 460.8 0 
L 0 0 
z
" style="fill:#ffffff;"/>
  </g>
  <g id="axes_1">
   <g id="patch_2">
    <path d="M 57.6 307.584 
L 414.72 307.584 
L 414.72 41.472 
L 57.6 41.472 
z
" style="fill:#ffffff;"/>
   </g>
   <g id="PathCollection_1">
    <defs>
     <path d="M 0 3 
C 0.795609 3 1.55874 2.683901 2.12132 2.12132 
C 2.683901 1.55874 3 0.795609 3 0 
C 3 -0.795609 2.683901 -1.55874 2.12132 -2.12132 
C 1.55874 -2.683901 0.795609 -3 0 -3 
C -0.795609 -3 -1.55874 -2.683901 -2.12132 -2.12132 
C -2.683901 -1.55874 -3 -0.795609 -3 0 
C -3 0.795609 -2.683901 1.55874 -2.12132 2.12132 
C -1.55874 2.683901 -0.795609 3 0 3 
z
" id="m3191c6e845" style="stroke:#1f77b4;"/>
    </defs>
    <g clip-path="url(#pf01a19d6ac)">
     <use style="fill:#1f77b4;stroke:#1f77b4;" x="73.832727" xlink:href="#m3191c6e845" y="295.488"/>
     <use style="fill:#1f77b4;stroke:#1f77b4;" x="197.796327" xlink:href="#m3191c6e845" y="82.847781"/>
     <use style="fill:#1f77b4;stroke:#1f77b4;" x="110.998851" xlink:href="#m3191c6e845" y="247.897969"/>
     <use style="fill:#1f77b4;stroke:#1f77b4;" x="177.84737" xlink:href="#m3191c6e845" y="57.338532"/>
     <use style="fill:#1f77b4;stroke:#1f77b4;" x="123.57546" xlink:href="#m3191c6e845" y="171.647608"/>
     <use style="fill:#1f77b4;stroke:#1f77b4;" x="83.368062" xlink:href="#m3191c6e845" y="287.115579"/>
     <use style="fill:#1f77b4;stroke:#1f77b4;" x="180.785766" xlink:href="#m3191c6e845" y="154.492587"/>
     <use style="fill:#1f77b4;stroke:#1f77b4;" x="106.820818" xlink:href="#m3191c6e845" y="251.629546"/>
     <use style="fill:#1f77b4;stroke:#1f77b4;" x="108.254307" xlink:href="#m3191c6e845" y="241.839832"/>
     <use style="fill:#1f77b4;stroke:#1f77b4;" x="96.179727" xlink:href="#m3191c6e845" y="265.73446"/>
     <use style="fill:#1f77b4;stroke:#1f77b4;" x="83.837814" xlink:href="#m3191c6e845" y="280.198245"/>
     <use style="fill:#1f77b4;stroke:#1f77b4;" x="180.35725" xlink:href="#m3191c6e845" y="92.790631"/>
     <use style="fill:#1f77b4;stroke:#1f77b4;" x="141.859666" xlink:href="#m3191c6e845" y="248.882592"/>
     <use style="fill:#1f77b4;stroke:#1f77b4;" x="93.335081" xlink:href="#m3191c6e845" y="275.373737"/>
     <use style="fill:#1f77b4;stroke:#1f77b4;" x="166.690646" xlink:href="#m3191c6e845" y="182.459026"/>
     <use style="fill:#1f77b4;stroke:#1f77b4;" x="95.641138" xlink:href="#m3191c6e845" y="256.752733"/>
     <use style="fill:#1f77b4;stroke:#1f77b4;" x="218.495187" xlink:href="#m3191c6e845" y="86.539628"/>
     <use style="fill:#1f77b4;stroke:#1f77b4;" x="91.815101" xlink:href="#m3191c6e845" y="278.403075"/>
     <use style="fill:#1f77b4;stroke:#1f77b4;" x="94.990712" xlink:href="#m3191c6e845" y="278.501799"/>
     <use style="fill:#1f77b4;stroke:#1f77b4;" x="110.401989" xlink:href="#m3191c6e845" y="247.272365"/>
     <use style="fill:#1f77b4;stroke:#1f77b4;" x="152.036924" xlink:href="#m3191c6e845" y="172.301757"/>
     <use style="fill:#1f77b4;stroke:#1f77b4;" x="257.727371" xlink:href="#m3191c6e845" y="100.382043"/>
     <use style="fill:#1f77b4;stroke:#1f77b4;" x="278.576722" xlink:href="#m3191c6e845" y="97.362418"/>
     <use style="fill:#1f77b4;stroke:#1f77b4;" x="155.552627" xlink:href="#m3191c6e845" y="159.290442"/>
     <use style="fill:#1f77b4;stroke:#1f77b4;" x="98.281104" xlink:href="#m3191c6e845" y="276.95038"/>
     <use style="fill:#1f77b4;stroke:#1f77b4;" x="128.175206" xlink:href="#m3191c6e845" y="233.130294"/>
     <use style="fill:#1f77b4;stroke:#1f77b4;" x="88.930269" xlink:href="#m3191c6e845" y="289.241434"/>
     <use style="fill:#1f77b4;stroke:#1f77b4;" x="101.010344" xlink:href="#m3191c6e845" y="267.841153"/>
     <use style="fill:#1f77b4;stroke:#1f77b4;" x="213.559599" xlink:href="#m3191c6e845" y="150.098648"/>
     <use style="fill:#1f77b4;stroke:#1f77b4;" x="147.149162" xlink:href="#m3191c6e845" y="205.133816"/>
     <use style="fill:#1f77b4;stroke:#1f77b4;" x="106.392302" xlink:href="#m3191c6e845" y="269.311601"/>
     <use style="fill:#1f77b4;stroke:#1f77b4;" x="132.694568" xlink:href="#m3191c6e845" y="228.464714"/>
     <use style="fill:#1f77b4;stroke:#1f77b4;" x="153.184735" xlink:href="#m3191c6e845" y="165.361476"/>
     <use style="fill:#1f77b4;stroke:#1f77b4;" x="200.425361" xlink:href="#m3191c6e845" y="78.884444"/>
     <use style="fill:#1f77b4;stroke:#1f77b4;" x="105.435793" xlink:href="#m3191c6e845" y="280.314999"/>
     <use style="fill:#1f77b4;stroke:#1f77b4;" x="288.486158" xlink:href="#m3191c6e845" y="53.568"/>
     <use style="fill:#1f77b4;stroke:#1f77b4;" x="130.203006" xlink:href="#m3191c6e845" y="218.846919"/>
     <use style="fill:#1f77b4;stroke:#1f77b4;" x="172.429701" xlink:href="#m3191c6e845" y="207.137088"/>
     <use style="fill:#1f77b4;stroke:#1f77b4;" x="123.884944" xlink:href="#m3191c6e845" y="248.622978"/>
     <use style="fill:#1f77b4;stroke:#1f77b4;" x="237.423636" xlink:href="#m3191c6e845" y="149.768092"/>
     <use style="fill:#1f77b4;stroke:#1f77b4;" x="336.175584" xlink:href="#m3191c6e845" y="113.421185"/>
     <use style="fill:#1f77b4;stroke:#1f77b4;" x="186.73908" xlink:href="#m3191c6e845" y="121.152496"/>
     <use style="fill:#1f77b4;stroke:#1f77b4;" x="238.991814" xlink:href="#m3191c6e845" y="99.162064"/>
     <use style="fill:#1f77b4;stroke:#1f77b4;" x="169.560174" xlink:href="#m3191c6e845" y="210.311924"/>
     <use style="fill:#1f77b4;stroke:#1f77b4;" x="129.715824" xlink:href="#m3191c6e845" y="264.290281"/>
     <use style="fill:#1f77b4;stroke:#1f77b4;" x="231.361603" xlink:href="#m3191c6e845" y="102.428113"/>
     <use style="fill:#1f77b4;stroke:#1f77b4;" x="180.588725" xlink:href="#m3191c6e845" y="171.730557"/>
     <use style="fill:#1f77b4;stroke:#1f77b4;" x="293.187932" xlink:href="#m3191c6e845" y="80.836733"/>
     <use style="fill:#1f77b4;stroke:#1f77b4;" x="232.465005" xlink:href="#m3191c6e845" y="186.23665"/>
     <use style="fill:#1f77b4;stroke:#1f77b4;" x="174.304459" xlink:href="#m3191c6e845" y="190.066138"/>
     <use style="fill:#1f77b4;stroke:#1f77b4;" x="138.443561" xlink:href="#m3191c6e845" y="234.088596"/>
     <use style="fill:#1f77b4;stroke:#1f77b4;" x="256.73005" xlink:href="#m3191c6e845" y="126.657905"/>
     <use style="fill:#1f77b4;stroke:#1f77b4;" x="177.105119" xlink:href="#m3191c6e845" y="209.56013"/>
     <use style="fill:#1f77b4;stroke:#1f77b4;" x="212.541873" xlink:href="#m3191c6e845" y="179.902313"/>
     <use style="fill:#1f77b4;stroke:#1f77b4;" x="258.561447" xlink:href="#m3191c6e845" y="111.119426"/>
     <use style="fill:#1f77b4;stroke:#1f77b4;" x="246.517082" xlink:href="#m3191c6e845" y="99.350827"/>
     <use style="fill:#1f77b4;stroke:#1f77b4;" x="283.962932" xlink:href="#m3191c6e845" y="80.57087"/>
     <use style="fill:#1f77b4;stroke:#1f77b4;" x="238.39058" xlink:href="#m3191c6e845" y="100.471782"/>
     <use style="fill:#1f77b4;stroke:#1f77b4;" x="233.684554" xlink:href="#m3191c6e845" y="132.995258"/>
     <use style="fill:#1f77b4;stroke:#1f77b4;" x="234.346753" xlink:href="#m3191c6e845" y="129.881536"/>
     <use style="fill:#1f77b4;stroke:#1f77b4;" x="226.801939" xlink:href="#m3191c6e845" y="200.779895"/>
     <use style="fill:#1f77b4;stroke:#1f77b4;" x="153.957595" xlink:href="#m3191c6e845" y="256.342525"/>
     <use style="fill:#1f77b4;stroke:#1f77b4;" x="300.927155" xlink:href="#m3191c6e845" y="120.037165"/>
     <use style="fill:#1f77b4;stroke:#1f77b4;" x="332.215939" xlink:href="#m3191c6e845" y="88.396538"/>
     <use style="fill:#1f77b4;stroke:#1f77b4;" x="305.728831" xlink:href="#m3191c6e845" y="116.334298"/>
     <use style="fill:#1f77b4;stroke:#1f77b4;" x="266.829513" xlink:href="#m3191c6e845" y="129.77737"/>
     <use style="fill:#1f77b4;stroke:#1f77b4;" x="275.191954" xlink:href="#m3191c6e845" y="122.963315"/>
     <use style="fill:#1f77b4;stroke:#1f77b4;" x="313.597714" xlink:href="#m3191c6e845" y="123.007577"/>
     <use style="fill:#1f77b4;stroke:#1f77b4;" x="252.054998" xlink:href="#m3191c6e845" y="160.08912"/>
     <use style="fill:#1f77b4;stroke:#1f77b4;" x="245.4764" xlink:href="#m3191c6e845" y="157.659322"/>
     <use style="fill:#1f77b4;stroke:#1f77b4;" x="269.878864" xlink:href="#m3191c6e845" y="103.222708"/>
     <use style="fill:#1f77b4;stroke:#1f77b4;" x="271.819212" xlink:href="#m3191c6e845" y="146.627877"/>
     <use style="fill:#1f77b4;stroke:#1f77b4;" x="269.27435" xlink:href="#m3191c6e845" y="165.976944"/>
     <use style="fill:#1f77b4;stroke:#1f77b4;" x="315.548993" xlink:href="#m3191c6e845" y="71.002109"/>
     <use style="fill:#1f77b4;stroke:#1f77b4;" x="321.043911" xlink:href="#m3191c6e845" y="116.322919"/>
     <use style="fill:#1f77b4;stroke:#1f77b4;" x="280.187908" xlink:href="#m3191c6e845" y="131.226072"/>
     <use style="fill:#1f77b4;stroke:#1f77b4;" x="316.889928" xlink:href="#m3191c6e845" y="97.314106"/>
     <use style="fill:#1f77b4;stroke:#1f77b4;" x="205.053044" xlink:href="#m3191c6e845" y="230.881961"/>
     <use style="fill:#1f77b4;stroke:#1f77b4;" x="329.322726" xlink:href="#m3191c6e845" y="83.667855"/>
     <use style="fill:#1f77b4;stroke:#1f77b4;" x="262.555829" xlink:href="#m3191c6e845" y="128.347126"/>
     <use style="fill:#1f77b4;stroke:#1f77b4;" x="189.927444" xlink:href="#m3191c6e845" y="248.999283"/>
     <use style="fill:#1f77b4;stroke:#1f77b4;" x="259.503927" xlink:href="#m3191c6e845" y="148.437374"/>
     <use style="fill:#1f77b4;stroke:#1f77b4;" x="223.979173" xlink:href="#m3191c6e845" y="205.87623"/>
     <use style="fill:#1f77b4;stroke:#1f77b4;" x="234.564543" xlink:href="#m3191c6e845" y="216.239343"/>
     <use style="fill:#1f77b4;stroke:#1f77b4;" x="328.256537" xlink:href="#m3191c6e845" y="137.313472"/>
     <use style="fill:#1f77b4;stroke:#1f77b4;" x="281.412894" xlink:href="#m3191c6e845" y="137.371919"/>
     <use style="fill:#1f77b4;stroke:#1f77b4;" x="302.792348" xlink:href="#m3191c6e845" y="117.550678"/>
     <use style="fill:#1f77b4;stroke:#1f77b4;" x="311.07253" xlink:href="#m3191c6e845" y="136.722735"/>
     <use style="fill:#1f77b4;stroke:#1f77b4;" x="232.26892" xlink:href="#m3191c6e845" y="153.719537"/>
     <use style="fill:#1f77b4;stroke:#1f77b4;" x="229.330524" xlink:href="#m3191c6e845" y="203.740008"/>
     <use style="fill:#1f77b4;stroke:#1f77b4;" x="239.002746" xlink:href="#m3191c6e845" y="220.122541"/>
     <use style="fill:#1f77b4;stroke:#1f77b4;" x="383.368687" xlink:href="#m3191c6e845" y="130.093038"/>
     <use style="fill:#1f77b4;stroke:#1f77b4;" x="244.451022" xlink:href="#m3191c6e845" y="203.04402"/>
     <use style="fill:#1f77b4;stroke:#1f77b4;" x="271.702609" xlink:href="#m3191c6e845" y="139.975536"/>
     <use style="fill:#1f77b4;stroke:#1f77b4;" x="312.510482" xlink:href="#m3191c6e845" y="141.659029"/>
     <use style="fill:#1f77b4;stroke:#1f77b4;" x="334.220054" xlink:href="#m3191c6e845" y="108.340713"/>
     <use style="fill:#1f77b4;stroke:#1f77b4;" x="327.549996" xlink:href="#m3191c6e845" y="131.165925"/>
     <use style="fill:#1f77b4;stroke:#1f77b4;" x="355.515138" xlink:href="#m3191c6e845" y="163.362759"/>
     <use style="fill:#1f77b4;stroke:#1f77b4;" x="276.849904" xlink:href="#m3191c6e845" y="194.393141"/>
     <use style="fill:#1f77b4;stroke:#1f77b4;" x="232.758653" xlink:href="#m3191c6e845" y="227.639174"/>
     <use style="fill:#1f77b4;stroke:#1f77b4;" x="322.10427" xlink:href="#m3191c6e845" y="128.832475"/>
     <use style="fill:#1f77b4;stroke:#1f77b4;" x="316.758749" xlink:href="#m3191c6e845" y="162.150226"/>
     <use style="fill:#1f77b4;stroke:#1f77b4;" x="326.427691" xlink:href="#m3191c6e845" y="130.246312"/>
     <use style="fill:#1f77b4;stroke:#1f77b4;" x="269.748779" xlink:href="#m3191c6e845" y="204.955143"/>
     <use style="fill:#1f77b4;stroke:#1f77b4;" x="360.043253" xlink:href="#m3191c6e845" y="132.290429"/>
     <use style="fill:#1f77b4;stroke:#1f77b4;" x="312.353341" xlink:href="#m3191c6e845" y="191.104669"/>
     <use style="fill:#1f77b4;stroke:#1f77b4;" x="303.236441" xlink:href="#m3191c6e845" y="198.212821"/>
     <use style="fill:#1f77b4;stroke:#1f77b4;" x="339.66578" xlink:href="#m3191c6e845" y="164.448123"/>
     <use style="fill:#1f77b4;stroke:#1f77b4;" x="306.356301" xlink:href="#m3191c6e845" y="181.268328"/>
     <use style="fill:#1f77b4;stroke:#1f77b4;" x="346.590907" xlink:href="#m3191c6e845" y="216.899509"/>
     <use style="fill:#1f77b4;stroke:#1f77b4;" x="376.175738" xlink:href="#m3191c6e845" y="180.926376"/>
     <use style="fill:#1f77b4;stroke:#1f77b4;" x="340.928372" xlink:href="#m3191c6e845" y="201.722181"/>
     <use style="fill:#1f77b4;stroke:#1f77b4;" x="365.200751" xlink:href="#m3191c6e845" y="171.479479"/>
     <use style="fill:#1f77b4;stroke:#1f77b4;" x="398.487273" xlink:href="#m3191c6e845" y="197.049123"/>
     <use style="fill:#1f77b4;stroke:#1f77b4;" x="385.667498" xlink:href="#m3191c6e845" y="207.395741"/>
    </g>
   </g>
   <g id="matplotlib.axis_1">
    <g id="xtick_1">
     <g id="line2d_1">
      <defs>
       <path d="M 0 0 
L 0 3.5 
" id="mb8da24e0c6" style="stroke:#000000;stroke-width:0.8;"/>
      </defs>
      <g>
       <use style="stroke:#000000;stroke-width:0.8;" x="73.029259" xlink:href="#mb8da24e0c6" y="307.584"/>
      </g>
     </g>
     <g id="text_1">
      <!-- 0 -->
      <g transform="translate(69.848009 322.182437)scale(0.1 -0.1)">
       <defs>
        <path d="M 2034 4250 
Q 1547 4250 1301 3770 
Q 1056 3291 1056 2328 
Q 1056 1369 1301 889 
Q 1547 409 2034 409 
Q 2525 409 2770 889 
Q 3016 1369 3016 2328 
Q 3016 3291 2770 3770 
Q 2525 4250 2034 4250 
z
M 2034 4750 
Q 2819 4750 3233 4129 
Q 3647 3509 3647 2328 
Q 3647 1150 3233 529 
Q 2819 -91 2034 -91 
Q 1250 -91 836 529 
Q 422 1150 422 2328 
Q 422 3509 836 4129 
Q 1250 4750 2034 4750 
z
" id="DejaVuSans-30" transform="scale(0.015625)"/>
       </defs>
       <use xlink:href="#DejaVuSans-30"/>
      </g>
     </g>
    </g>
    <g id="xtick_2">
     <g id="line2d_2">
      <g>
       <use style="stroke:#000000;stroke-width:0.8;" x="149.55" xlink:href="#mb8da24e0c6" y="307.584"/>
      </g>
     </g>
     <g id="text_2">
      <!-- 1000 -->
      <g transform="translate(136.825 322.182437)scale(0.1 -0.1)">
       <defs>
        <path d="M 794 531 
L 1825 531 
L 1825 4091 
L 703 3866 
L 703 4441 
L 1819 4666 
L 2450 4666 
L 2450 531 
L 3481 531 
L 3481 0 
L 794 0 
L 794 531 
z
" id="DejaVuSans-31" transform="scale(0.015625)"/>
       </defs>
       <use xlink:href="#DejaVuSans-31"/>
       <use x="63.623047" xlink:href="#DejaVuSans-30"/>
       <use x="127.246094" xlink:href="#DejaVuSans-30"/>
       <use x="190.869141" xlink:href="#DejaVuSans-30"/>
      </g>
     </g>
    </g>
    <g id="xtick_3">
     <g id="line2d_3">
      <g>
       <use style="stroke:#000000;stroke-width:0.8;" x="226.07074" xlink:href="#mb8da24e0c6" y="307.584"/>
      </g>
     </g>
     <g id="text_3">
      <!-- 2000 -->
      <g transform="translate(213.34574 322.182437)scale(0.1 -0.1)">
       <defs>
        <path d="M 1228 531 
L 3431 531 
L 3431 0 
L 469 0 
L 469 531 
Q 828 903 1448 1529 
Q 2069 2156 2228 2338 
Q 2531 2678 2651 2914 
Q 2772 3150 2772 3378 
Q 2772 3750 2511 3984 
Q 2250 4219 1831 4219 
Q 1534 4219 1204 4116 
Q 875 4013 500 3803 
L 500 4441 
Q 881 4594 1212 4672 
Q 1544 4750 1819 4750 
Q 2544 4750 2975 4387 
Q 3406 4025 3406 3419 
Q 3406 3131 3298 2873 
Q 3191 2616 2906 2266 
Q 2828 2175 2409 1742 
Q 1991 1309 1228 531 
z
" id="DejaVuSans-32" transform="scale(0.015625)"/>
       </defs>
       <use xlink:href="#DejaVuSans-32"/>
       <use x="63.623047" xlink:href="#DejaVuSans-30"/>
       <use x="127.246094" xlink:href="#DejaVuSans-30"/>
       <use x="190.869141" xlink:href="#DejaVuSans-30"/>
      </g>
     </g>
    </g>
    <g id="xtick_4">
     <g id="line2d_4">
      <g>
       <use style="stroke:#000000;stroke-width:0.8;" x="302.591481" xlink:href="#mb8da24e0c6" y="307.584"/>
      </g>
     </g>
     <g id="text_4">
      <!-- 3000 -->
      <g transform="translate(289.866481 322.182437)scale(0.1 -0.1)">
       <defs>
        <path d="M 2597 2516 
Q 3050 2419 3304 2112 
Q 3559 1806 3559 1356 
Q 3559 666 3084 287 
Q 2609 -91 1734 -91 
Q 1441 -91 1130 -33 
Q 819 25 488 141 
L 488 750 
Q 750 597 1062 519 
Q 1375 441 1716 441 
Q 2309 441 2620 675 
Q 2931 909 2931 1356 
Q 2931 1769 2642 2001 
Q 2353 2234 1838 2234 
L 1294 2234 
L 1294 2753 
L 1863 2753 
Q 2328 2753 2575 2939 
Q 2822 3125 2822 3475 
Q 2822 3834 2567 4026 
Q 2313 4219 1838 4219 
Q 1578 4219 1281 4162 
Q 984 4106 628 3988 
L 628 4550 
Q 988 4650 1302 4700 
Q 1616 4750 1894 4750 
Q 2613 4750 3031 4423 
Q 3450 4097 3450 3541 
Q 3450 3153 3228 2886 
Q 3006 2619 2597 2516 
z
" id="DejaVuSans-33" transform="scale(0.015625)"/>
       </defs>
       <use xlink:href="#DejaVuSans-33"/>
       <use x="63.623047" xlink:href="#DejaVuSans-30"/>
       <use x="127.246094" xlink:href="#DejaVuSans-30"/>
       <use x="190.869141" xlink:href="#DejaVuSans-30"/>
      </g>
     </g>
    </g>
    <g id="xtick_5">
     <g id="line2d_5">
      <g>
       <use style="stroke:#000000;stroke-width:0.8;" x="379.112221" xlink:href="#mb8da24e0c6" y="307.584"/>
      </g>
     </g>
     <g id="text_5">
      <!-- 4000 -->
      <g transform="translate(366.387221 322.182437)scale(0.1 -0.1)">
       <defs>
        <path d="M 2419 4116 
L 825 1625 
L 2419 1625 
L 2419 4116 
z
M 2253 4666 
L 3047 4666 
L 3047 1625 
L 3713 1625 
L 3713 1100 
L 3047 1100 
L 3047 0 
L 2419 0 
L 2419 1100 
L 313 1100 
L 313 1709 
L 2253 4666 
z
" id="DejaVuSans-34" transform="scale(0.015625)"/>
       </defs>
       <use xlink:href="#DejaVuSans-34"/>
       <use x="63.623047" xlink:href="#DejaVuSans-30"/>
       <use x="127.246094" xlink:href="#DejaVuSans-30"/>
       <use x="190.869141" xlink:href="#DejaVuSans-30"/>
      </g>
     </g>
    </g>
    <g id="text_6">
     <!-- Avg. Ranking -->
     <g transform="translate(203.499844 335.860562)scale(0.1 -0.1)">
      <defs>
       <path d="M 2188 4044 
L 1331 1722 
L 3047 1722 
L 2188 4044 
z
M 1831 4666 
L 2547 4666 
L 4325 0 
L 3669 0 
L 3244 1197 
L 1141 1197 
L 716 0 
L 50 0 
L 1831 4666 
z
" id="DejaVuSans-41" transform="scale(0.015625)"/>
       <path d="M 191 3500 
L 800 3500 
L 1894 563 
L 2988 3500 
L 3597 3500 
L 2284 0 
L 1503 0 
L 191 3500 
z
" id="DejaVuSans-76" transform="scale(0.015625)"/>
       <path d="M 2906 1791 
Q 2906 2416 2648 2759 
Q 2391 3103 1925 3103 
Q 1463 3103 1205 2759 
Q 947 2416 947 1791 
Q 947 1169 1205 825 
Q 1463 481 1925 481 
Q 2391 481 2648 825 
Q 2906 1169 2906 1791 
z
M 3481 434 
Q 3481 -459 3084 -895 
Q 2688 -1331 1869 -1331 
Q 1566 -1331 1297 -1286 
Q 1028 -1241 775 -1147 
L 775 -588 
Q 1028 -725 1275 -790 
Q 1522 -856 1778 -856 
Q 2344 -856 2625 -561 
Q 2906 -266 2906 331 
L 2906 616 
Q 2728 306 2450 153 
Q 2172 0 1784 0 
Q 1141 0 747 490 
Q 353 981 353 1791 
Q 353 2603 747 3093 
Q 1141 3584 1784 3584 
Q 2172 3584 2450 3431 
Q 2728 3278 2906 2969 
L 2906 3500 
L 3481 3500 
L 3481 434 
z
" id="DejaVuSans-67" transform="scale(0.015625)"/>
       <path d="M 684 794 
L 1344 794 
L 1344 0 
L 684 0 
L 684 794 
z
" id="DejaVuSans-2e" transform="scale(0.015625)"/>
       <path id="DejaVuSans-20" transform="scale(0.015625)"/>
       <path d="M 2841 2188 
Q 3044 2119 3236 1894 
Q 3428 1669 3622 1275 
L 4263 0 
L 3584 0 
L 2988 1197 
Q 2756 1666 2539 1819 
Q 2322 1972 1947 1972 
L 1259 1972 
L 1259 0 
L 628 0 
L 628 4666 
L 2053 4666 
Q 2853 4666 3247 4331 
Q 3641 3997 3641 3322 
Q 3641 2881 3436 2590 
Q 3231 2300 2841 2188 
z
M 1259 4147 
L 1259 2491 
L 2053 2491 
Q 2509 2491 2742 2702 
Q 2975 2913 2975 3322 
Q 2975 3731 2742 3939 
Q 2509 4147 2053 4147 
L 1259 4147 
z
" id="DejaVuSans-52" transform="scale(0.015625)"/>
       <path d="M 2194 1759 
Q 1497 1759 1228 1600 
Q 959 1441 959 1056 
Q 959 750 1161 570 
Q 1363 391 1709 391 
Q 2188 391 2477 730 
Q 2766 1069 2766 1631 
L 2766 1759 
L 2194 1759 
z
M 3341 1997 
L 3341 0 
L 2766 0 
L 2766 531 
Q 2569 213 2275 61 
Q 1981 -91 1556 -91 
Q 1019 -91 701 211 
Q 384 513 384 1019 
Q 384 1609 779 1909 
Q 1175 2209 1959 2209 
L 2766 2209 
L 2766 2266 
Q 2766 2663 2505 2880 
Q 2244 3097 1772 3097 
Q 1472 3097 1187 3025 
Q 903 2953 641 2809 
L 641 3341 
Q 956 3463 1253 3523 
Q 1550 3584 1831 3584 
Q 2591 3584 2966 3190 
Q 3341 2797 3341 1997 
z
" id="DejaVuSans-61" transform="scale(0.015625)"/>
       <path d="M 3513 2113 
L 3513 0 
L 2938 0 
L 2938 2094 
Q 2938 2591 2744 2837 
Q 2550 3084 2163 3084 
Q 1697 3084 1428 2787 
Q 1159 2491 1159 1978 
L 1159 0 
L 581 0 
L 581 3500 
L 1159 3500 
L 1159 2956 
Q 1366 3272 1645 3428 
Q 1925 3584 2291 3584 
Q 2894 3584 3203 3211 
Q 3513 2838 3513 2113 
z
" id="DejaVuSans-6e" transform="scale(0.015625)"/>
       <path d="M 581 4863 
L 1159 4863 
L 1159 1991 
L 2875 3500 
L 3609 3500 
L 1753 1863 
L 3688 0 
L 2938 0 
L 1159 1709 
L 1159 0 
L 581 0 
L 581 4863 
z
" id="DejaVuSans-6b" transform="scale(0.015625)"/>
       <path d="M 603 3500 
L 1178 3500 
L 1178 0 
L 603 0 
L 603 3500 
z
M 603 4863 
L 1178 4863 
L 1178 4134 
L 603 4134 
L 603 4863 
z
" id="DejaVuSans-69" transform="scale(0.015625)"/>
      </defs>
      <use xlink:href="#DejaVuSans-41"/>
      <use x="62.533203" xlink:href="#DejaVuSans-76"/>
      <use x="121.712891" xlink:href="#DejaVuSans-67"/>
      <use x="185.189453" xlink:href="#DejaVuSans-2e"/>
      <use x="216.976562" xlink:href="#DejaVuSans-20"/>
      <use x="248.763672" xlink:href="#DejaVuSans-52"/>
      <use x="315.996094" xlink:href="#DejaVuSans-61"/>
      <use x="377.275391" xlink:href="#DejaVuSans-6e"/>
      <use x="440.654297" xlink:href="#DejaVuSans-6b"/>
      <use x="498.564453" xlink:href="#DejaVuSans-69"/>
      <use x="526.347656" xlink:href="#DejaVuSans-6e"/>
      <use x="589.726562" xlink:href="#DejaVuSans-67"/>
     </g>
    </g>
   </g>
   <g id="matplotlib.axis_2">
    <g id="ytick_1">
     <g id="line2d_6">
      <defs>
       <path d="M 0 0 
L -3.5 0 
" id="m9f61677e2a" style="stroke:#000000;stroke-width:0.8;"/>
      </defs>
      <g>
       <use style="stroke:#000000;stroke-width:0.8;" x="57.6" xlink:href="#m9f61677e2a" y="296.800489"/>
      </g>
     </g>
     <g id="text_7">
      <!-- 0 -->
      <g transform="translate(44.2375 300.599708)scale(0.1 -0.1)">
       <use xlink:href="#DejaVuSans-30"/>
      </g>
     </g>
    </g>
    <g id="ytick_2">
     <g id="line2d_7">
      <g>
       <use style="stroke:#000000;stroke-width:0.8;" x="57.6" xlink:href="#m9f61677e2a" y="261.052569"/>
      </g>
     </g>
     <g id="text_8">
      <!-- 250 -->
      <g transform="translate(31.5125 264.851787)scale(0.1 -0.1)">
       <defs>
        <path d="M 691 4666 
L 3169 4666 
L 3169 4134 
L 1269 4134 
L 1269 2991 
Q 1406 3038 1543 3061 
Q 1681 3084 1819 3084 
Q 2600 3084 3056 2656 
Q 3513 2228 3513 1497 
Q 3513 744 3044 326 
Q 2575 -91 1722 -91 
Q 1428 -91 1123 -41 
Q 819 9 494 109 
L 494 744 
Q 775 591 1075 516 
Q 1375 441 1709 441 
Q 2250 441 2565 725 
Q 2881 1009 2881 1497 
Q 2881 1984 2565 2268 
Q 2250 2553 1709 2553 
Q 1456 2553 1204 2497 
Q 953 2441 691 2322 
L 691 4666 
z
" id="DejaVuSans-35" transform="scale(0.015625)"/>
       </defs>
       <use xlink:href="#DejaVuSans-32"/>
       <use x="63.623047" xlink:href="#DejaVuSans-35"/>
       <use x="127.246094" xlink:href="#DejaVuSans-30"/>
      </g>
     </g>
    </g>
    <g id="ytick_3">
     <g id="line2d_8">
      <g>
       <use style="stroke:#000000;stroke-width:0.8;" x="57.6" xlink:href="#m9f61677e2a" y="225.304648"/>
      </g>
     </g>
     <g id="text_9">
      <!-- 500 -->
      <g transform="translate(31.5125 229.103867)scale(0.1 -0.1)">
       <use xlink:href="#DejaVuSans-35"/>
       <use x="63.623047" xlink:href="#DejaVuSans-30"/>
       <use x="127.246094" xlink:href="#DejaVuSans-30"/>
      </g>
     </g>
    </g>
    <g id="ytick_4">
     <g id="line2d_9">
      <g>
       <use style="stroke:#000000;stroke-width:0.8;" x="57.6" xlink:href="#m9f61677e2a" y="189.556728"/>
      </g>
     </g>
     <g id="text_10">
      <!-- 750 -->
      <g transform="translate(31.5125 193.355946)scale(0.1 -0.1)">
       <defs>
        <path d="M 525 4666 
L 3525 4666 
L 3525 4397 
L 1831 0 
L 1172 0 
L 2766 4134 
L 525 4134 
L 525 4666 
z
" id="DejaVuSans-37" transform="scale(0.015625)"/>
       </defs>
       <use xlink:href="#DejaVuSans-37"/>
       <use x="63.623047" xlink:href="#DejaVuSans-35"/>
       <use x="127.246094" xlink:href="#DejaVuSans-30"/>
      </g>
     </g>
    </g>
    <g id="ytick_5">
     <g id="line2d_10">
      <g>
       <use style="stroke:#000000;stroke-width:0.8;" x="57.6" xlink:href="#m9f61677e2a" y="153.808807"/>
      </g>
     </g>
     <g id="text_11">
      <!-- 1000 -->
      <g transform="translate(25.15 157.608026)scale(0.1 -0.1)">
       <use xlink:href="#DejaVuSans-31"/>
       <use x="63.623047" xlink:href="#DejaVuSans-30"/>
       <use x="127.246094" xlink:href="#DejaVuSans-30"/>
       <use x="190.869141" xlink:href="#DejaVuSans-30"/>
      </g>
     </g>
    </g>
    <g id="ytick_6">
     <g id="line2d_11">
      <g>
       <use style="stroke:#000000;stroke-width:0.8;" x="57.6" xlink:href="#m9f61677e2a" y="118.060887"/>
      </g>
     </g>
     <g id="text_12">
      <!-- 1250 -->
      <g transform="translate(25.15 121.860105)scale(0.1 -0.1)">
       <use xlink:href="#DejaVuSans-31"/>
       <use x="63.623047" xlink:href="#DejaVuSans-32"/>
       <use x="127.246094" xlink:href="#DejaVuSans-35"/>
       <use x="190.869141" xlink:href="#DejaVuSans-30"/>
      </g>
     </g>
    </g>
    <g id="ytick_7">
     <g id="line2d_12">
      <g>
       <use style="stroke:#000000;stroke-width:0.8;" x="57.6" xlink:href="#m9f61677e2a" y="82.312966"/>
      </g>
     </g>
     <g id="text_13">
      <!-- 1500 -->
      <g transform="translate(25.15 86.112185)scale(0.1 -0.1)">
       <use xlink:href="#DejaVuSans-31"/>
       <use x="63.623047" xlink:href="#DejaVuSans-35"/>
       <use x="127.246094" xlink:href="#DejaVuSans-30"/>
       <use x="190.869141" xlink:href="#DejaVuSans-30"/>
      </g>
     </g>
    </g>
    <g id="ytick_8">
     <g id="line2d_13">
      <g>
       <use style="stroke:#000000;stroke-width:0.8;" x="57.6" xlink:href="#m9f61677e2a" y="46.565046"/>
      </g>
     </g>
     <g id="text_14">
      <!-- 1750 -->
      <g transform="translate(25.15 50.364264)scale(0.1 -0.1)">
       <use xlink:href="#DejaVuSans-31"/>
       <use x="63.623047" xlink:href="#DejaVuSans-37"/>
       <use x="127.246094" xlink:href="#DejaVuSans-35"/>
       <use x="190.869141" xlink:href="#DejaVuSans-30"/>
      </g>
     </g>
    </g>
    <g id="text_15">
     <!-- Ranks Std. Dev. -->
     <g transform="translate(19.070312 213.785812)rotate(-90)scale(0.1 -0.1)">
      <defs>
       <path d="M 2834 3397 
L 2834 2853 
Q 2591 2978 2328 3040 
Q 2066 3103 1784 3103 
Q 1356 3103 1142 2972 
Q 928 2841 928 2578 
Q 928 2378 1081 2264 
Q 1234 2150 1697 2047 
L 1894 2003 
Q 2506 1872 2764 1633 
Q 3022 1394 3022 966 
Q 3022 478 2636 193 
Q 2250 -91 1575 -91 
Q 1294 -91 989 -36 
Q 684 19 347 128 
L 347 722 
Q 666 556 975 473 
Q 1284 391 1588 391 
Q 1994 391 2212 530 
Q 2431 669 2431 922 
Q 2431 1156 2273 1281 
Q 2116 1406 1581 1522 
L 1381 1569 
Q 847 1681 609 1914 
Q 372 2147 372 2553 
Q 372 3047 722 3315 
Q 1072 3584 1716 3584 
Q 2034 3584 2315 3537 
Q 2597 3491 2834 3397 
z
" id="DejaVuSans-73" transform="scale(0.015625)"/>
       <path d="M 3425 4513 
L 3425 3897 
Q 3066 4069 2747 4153 
Q 2428 4238 2131 4238 
Q 1616 4238 1336 4038 
Q 1056 3838 1056 3469 
Q 1056 3159 1242 3001 
Q 1428 2844 1947 2747 
L 2328 2669 
Q 3034 2534 3370 2195 
Q 3706 1856 3706 1288 
Q 3706 609 3251 259 
Q 2797 -91 1919 -91 
Q 1588 -91 1214 -16 
Q 841 59 441 206 
L 441 856 
Q 825 641 1194 531 
Q 1563 422 1919 422 
Q 2459 422 2753 634 
Q 3047 847 3047 1241 
Q 3047 1584 2836 1778 
Q 2625 1972 2144 2069 
L 1759 2144 
Q 1053 2284 737 2584 
Q 422 2884 422 3419 
Q 422 4038 858 4394 
Q 1294 4750 2059 4750 
Q 2388 4750 2728 4690 
Q 3069 4631 3425 4513 
z
" id="DejaVuSans-53" transform="scale(0.015625)"/>
       <path d="M 1172 4494 
L 1172 3500 
L 2356 3500 
L 2356 3053 
L 1172 3053 
L 1172 1153 
Q 1172 725 1289 603 
Q 1406 481 1766 481 
L 2356 481 
L 2356 0 
L 1766 0 
Q 1100 0 847 248 
Q 594 497 594 1153 
L 594 3053 
L 172 3053 
L 172 3500 
L 594 3500 
L 594 4494 
L 1172 4494 
z
" id="DejaVuSans-74" transform="scale(0.015625)"/>
       <path d="M 2906 2969 
L 2906 4863 
L 3481 4863 
L 3481 0 
L 2906 0 
L 2906 525 
Q 2725 213 2448 61 
Q 2172 -91 1784 -91 
Q 1150 -91 751 415 
Q 353 922 353 1747 
Q 353 2572 751 3078 
Q 1150 3584 1784 3584 
Q 2172 3584 2448 3432 
Q 2725 3281 2906 2969 
z
M 947 1747 
Q 947 1113 1208 752 
Q 1469 391 1925 391 
Q 2381 391 2643 752 
Q 2906 1113 2906 1747 
Q 2906 2381 2643 2742 
Q 2381 3103 1925 3103 
Q 1469 3103 1208 2742 
Q 947 2381 947 1747 
z
" id="DejaVuSans-64" transform="scale(0.015625)"/>
       <path d="M 1259 4147 
L 1259 519 
L 2022 519 
Q 2988 519 3436 956 
Q 3884 1394 3884 2338 
Q 3884 3275 3436 3711 
Q 2988 4147 2022 4147 
L 1259 4147 
z
M 628 4666 
L 1925 4666 
Q 3281 4666 3915 4102 
Q 4550 3538 4550 2338 
Q 4550 1131 3912 565 
Q 3275 0 1925 0 
L 628 0 
L 628 4666 
z
" id="DejaVuSans-44" transform="scale(0.015625)"/>
       <path d="M 3597 1894 
L 3597 1613 
L 953 1613 
Q 991 1019 1311 708 
Q 1631 397 2203 397 
Q 2534 397 2845 478 
Q 3156 559 3463 722 
L 3463 178 
Q 3153 47 2828 -22 
Q 2503 -91 2169 -91 
Q 1331 -91 842 396 
Q 353 884 353 1716 
Q 353 2575 817 3079 
Q 1281 3584 2069 3584 
Q 2775 3584 3186 3129 
Q 3597 2675 3597 1894 
z
M 3022 2063 
Q 3016 2534 2758 2815 
Q 2500 3097 2075 3097 
Q 1594 3097 1305 2825 
Q 1016 2553 972 2059 
L 3022 2063 
z
" id="DejaVuSans-65" transform="scale(0.015625)"/>
      </defs>
      <use xlink:href="#DejaVuSans-52"/>
      <use x="67.232422" xlink:href="#DejaVuSans-61"/>
      <use x="128.511719" xlink:href="#DejaVuSans-6e"/>
      <use x="191.890625" xlink:href="#DejaVuSans-6b"/>
      <use x="249.800781" xlink:href="#DejaVuSans-73"/>
      <use x="301.900391" xlink:href="#DejaVuSans-20"/>
      <use x="333.6875" xlink:href="#DejaVuSans-53"/>
      <use x="397.164062" xlink:href="#DejaVuSans-74"/>
      <use x="436.373047" xlink:href="#DejaVuSans-64"/>
      <use x="499.849609" xlink:href="#DejaVuSans-2e"/>
      <use x="531.636719" xlink:href="#DejaVuSans-20"/>
      <use x="563.423828" xlink:href="#DejaVuSans-44"/>
      <use x="640.425781" xlink:href="#DejaVuSans-65"/>
      <use x="701.949219" xlink:href="#DejaVuSans-76"/>
      <use x="753.378906" xlink:href="#DejaVuSans-2e"/>
     </g>
    </g>
   </g>
   <g id="patch_3">
    <path d="M 57.6 307.584 
L 57.6 41.472 
" style="fill:none;stroke:#000000;stroke-linecap:square;stroke-linejoin:miter;stroke-width:0.8;"/>
   </g>
   <g id="patch_4">
    <path d="M 414.72 307.584 
L 414.72 41.472 
" style="fill:none;stroke:#000000;stroke-linecap:square;stroke-linejoin:miter;stroke-width:0.8;"/>
   </g>
   <g id="patch_5">
    <path d="M 57.6 307.584 
L 414.72 307.584 
" style="fill:none;stroke:#000000;stroke-linecap:square;stroke-linejoin:miter;stroke-width:0.8;"/>
   </g>
   <g id="patch_6">
    <path d="M 57.6 41.472 
L 414.72 41.472 
" style="fill:none;stroke:#000000;stroke-linecap:square;stroke-linejoin:miter;stroke-width:0.8;"/>
   </g>
  </g>
 </g>
 <defs>
  <clipPath id="pf01a19d6ac">
   <rect height="266.112" width="357.12" x="57.6" y="41.472"/>
  </clipPath>
 </defs>
</svg>
