<?xml version="1.0" encoding="utf-8" standalone="no"?>
<!DOCTYPE svg PUBLIC "-//W3C//DTD SVG 1.1//EN"
  "http://www.w3.org/Graphics/SVG/1.1/DTD/svg11.dtd">
<svg height="345.6pt" version="1.1" viewBox="0 0 460.8 345.6" width="460.8pt" xmlns="http://www.w3.org/2000/svg" xmlns:xlink="http://www.w3.org/1999/xlink">
 <metadata>
  <rdf:RDF xmlns:cc="http://creativecommons.org/ns#" xmlns:dc="http://purl.org/dc/elements/1.1/" xmlns:rdf="http://www.w3.org/1999/02/22-rdf-syntax-ns#">
   <cc:Work>
    <dc:type rdf:resource="http://purl.org/dc/dcmitype/StillImage"/>
    <dc:date>2021-09-06T21:11:03.151609</dc:date>
    <dc:format>image/svg+xml</dc:format>
    <dc:creator>
     <cc:Agent>
      <dc:title>Matplotlib v3.4.3, https://matplotlib.org/</dc:title>
     </cc:Agent>
    </dc:creator>
   </cc:Work>
  </rdf:RDF>
 </metadata>
 <defs>
  <style type="text/css">*{stroke-linecap:butt;stroke-linejoin:round;}</style>
 </defs>
 <g id="figure_1">
  <g id="patch_1">
   <path d="M 0 345.6 
L 460.8 345.6 
L 460.8 0 
L 0 0 
z
" style="fill:#ffffff;"/>
  </g>
  <g id="axes_1">
   <g id="patch_2">
    <path d="M 57.6 307.584 
L 414.72 307.584 
L 414.72 41.472 
L 57.6 41.472 
z
" style="fill:#ffffff;"/>
   </g>
   <g id="PathCollection_1">
    <defs>
     <path d="M 0 3 
C 0.795609 3 1.55874 2.683901 2.12132 2.12132 
C 2.683901 1.55874 3 0.795609 3 0 
C 3 -0.795609 2.683901 -1.55874 2.12132 -2.12132 
C 1.55874 -2.683901 0.795609 -3 0 -3 
C -0.795609 -3 -1.55874 -2.683901 -2.12132 -2.12132 
C -2.683901 -1.55874 -3 -0.795609 -3 0 
C -3 0.795609 -2.683901 1.55874 -2.12132 2.12132 
C -1.55874 2.683901 -0.795609 3 0 3 
z
" id="m24ce0be8c2" style="stroke:#1f77b4;"/>
    </defs>
    <g clip-path="url(#p5c14f88bb5)">
     <use style="fill:#1f77b4;stroke:#1f77b4;" x="74.634212" xlink:href="#m24ce0be8c2" y="295.488"/>
     <use style="fill:#1f77b4;stroke:#1f77b4;" x="198.291778" xlink:href="#m24ce0be8c2" y="294.768428"/>
     <use style="fill:#1f77b4;stroke:#1f77b4;" x="111.708582" xlink:href="#m24ce0be8c2" y="294.552557"/>
     <use style="fill:#1f77b4;stroke:#1f77b4;" x="178.39207" xlink:href="#m24ce0be8c2" y="294.408642"/>
     <use style="fill:#1f77b4;stroke:#1f77b4;" x="124.254143" xlink:href="#m24ce0be8c2" y="294.264728"/>
     <use style="fill:#1f77b4;stroke:#1f77b4;" x="84.146006" xlink:href="#m24ce0be8c2" y="294.192771"/>
     <use style="fill:#1f77b4;stroke:#1f77b4;" x="181.323212" xlink:href="#m24ce0be8c2" y="294.048857"/>
     <use style="fill:#1f77b4;stroke:#1f77b4;" x="107.540864" xlink:href="#m24ce0be8c2" y="293.832985"/>
     <use style="fill:#1f77b4;stroke:#1f77b4;" x="108.970814" xlink:href="#m24ce0be8c2" y="293.689071"/>
     <use style="fill:#1f77b4;stroke:#1f77b4;" x="96.926042" xlink:href="#m24ce0be8c2" y="292.753628"/>
     <use style="fill:#1f77b4;stroke:#1f77b4;" x="84.614598" xlink:href="#m24ce0be8c2" y="292.609713"/>
     <use style="fill:#1f77b4;stroke:#1f77b4;" x="180.895754" xlink:href="#m24ce0be8c2" y="291.962099"/>
     <use style="fill:#1f77b4;stroke:#1f77b4;" x="142.49321" xlink:href="#m24ce0be8c2" y="291.818184"/>
     <use style="fill:#1f77b4;stroke:#1f77b4;" x="94.08842" xlink:href="#m24ce0be8c2" y="291.746227"/>
     <use style="fill:#1f77b4;stroke:#1f77b4;" x="167.262889" xlink:href="#m24ce0be8c2" y="291.386441"/>
     <use style="fill:#1f77b4;stroke:#1f77b4;" x="96.388783" xlink:href="#m24ce0be8c2" y="291.314484"/>
     <use style="fill:#1f77b4;stroke:#1f77b4;" x="218.939539" xlink:href="#m24ce0be8c2" y="291.098613"/>
     <use style="fill:#1f77b4;stroke:#1f77b4;" x="92.572192" xlink:href="#m24ce0be8c2" y="290.450998"/>
     <use style="fill:#1f77b4;stroke:#1f77b4;" x="95.739963" xlink:href="#m24ce0be8c2" y="289.947298"/>
     <use style="fill:#1f77b4;stroke:#1f77b4;" x="111.113194" xlink:href="#m24ce0be8c2" y="289.875341"/>
     <use style="fill:#1f77b4;stroke:#1f77b4;" x="152.645343" xlink:href="#m24ce0be8c2" y="289.443598"/>
     <use style="fill:#1f77b4;stroke:#1f77b4;" x="258.074869" xlink:href="#m24ce0be8c2" y="289.299684"/>
     <use style="fill:#1f77b4;stroke:#1f77b4;" x="278.872748" xlink:href="#m24ce0be8c2" y="288.292283"/>
     <use style="fill:#1f77b4;stroke:#1f77b4;" x="156.152367" xlink:href="#m24ce0be8c2" y="287.932497"/>
     <use style="fill:#1f77b4;stroke:#1f77b4;" x="99.022232" xlink:href="#m24ce0be8c2" y="287.788583"/>
     <use style="fill:#1f77b4;stroke:#1f77b4;" x="128.842534" xlink:href="#m24ce0be8c2" y="286.925097"/>
     <use style="fill:#1f77b4;stroke:#1f77b4;" x="89.694482" xlink:href="#m24ce0be8c2" y="286.133568"/>
     <use style="fill:#1f77b4;stroke:#1f77b4;" x="101.744734" xlink:href="#m24ce0be8c2" y="285.054211"/>
     <use style="fill:#1f77b4;stroke:#1f77b4;" x="214.016136" xlink:href="#m24ce0be8c2" y="284.190725"/>
     <use style="fill:#1f77b4;stroke:#1f77b4;" x="147.769647" xlink:href="#m24ce0be8c2" y="283.255281"/>
     <use style="fill:#1f77b4;stroke:#1f77b4;" x="107.113406" xlink:href="#m24ce0be8c2" y="282.679624"/>
     <use style="fill:#1f77b4;stroke:#1f77b4;" x="133.350738" xlink:href="#m24ce0be8c2" y="282.463753"/>
     <use style="fill:#1f77b4;stroke:#1f77b4;" x="153.790321" xlink:href="#m24ce0be8c2" y="280.73678"/>
     <use style="fill:#1f77b4;stroke:#1f77b4;" x="200.914322" xlink:href="#m24ce0be8c2" y="280.592866"/>
     <use style="fill:#1f77b4;stroke:#1f77b4;" x="106.159258" xlink:href="#m24ce0be8c2" y="276.491308"/>
     <use style="fill:#1f77b4;stroke:#1f77b4;" x="288.757721" xlink:href="#m24ce0be8c2" y="276.203479"/>
     <use style="fill:#1f77b4;stroke:#1f77b4;" x="130.865327" xlink:href="#m24ce0be8c2" y="275.555864"/>
     <use style="fill:#1f77b4;stroke:#1f77b4;" x="172.987776" xlink:href="#m24ce0be8c2" y="274.548464"/>
     <use style="fill:#1f77b4;stroke:#1f77b4;" x="124.562862" xlink:href="#m24ce0be8c2" y="274.044764"/>
     <use style="fill:#1f77b4;stroke:#1f77b4;" x="237.821258" xlink:href="#m24ce0be8c2" y="273.181278"/>
     <use style="fill:#1f77b4;stroke:#1f77b4;" x="336.329414" xlink:href="#m24ce0be8c2" y="272.677578"/>
     <use style="fill:#1f77b4;stroke:#1f77b4;" x="187.261829" xlink:href="#m24ce0be8c2" y="272.245835"/>
     <use style="fill:#1f77b4;stroke:#1f77b4;" x="239.385565" xlink:href="#m24ce0be8c2" y="270.662777"/>
     <use style="fill:#1f77b4;stroke:#1f77b4;" x="170.125333" xlink:href="#m24ce0be8c2" y="270.518863"/>
     <use style="fill:#1f77b4;stroke:#1f77b4;" x="130.379348" xlink:href="#m24ce0be8c2" y="270.015162"/>
     <use style="fill:#1f77b4;stroke:#1f77b4;" x="231.774191" xlink:href="#m24ce0be8c2" y="269.439505"/>
     <use style="fill:#1f77b4;stroke:#1f77b4;" x="181.126658" xlink:href="#m24ce0be8c2" y="267.928405"/>
     <use style="fill:#1f77b4;stroke:#1f77b4;" x="293.447888" xlink:href="#m24ce0be8c2" y="267.568619"/>
     <use style="fill:#1f77b4;stroke:#1f77b4;" x="232.874869" xlink:href="#m24ce0be8c2" y="267.424704"/>
     <use style="fill:#1f77b4;stroke:#1f77b4;" x="174.857906" xlink:href="#m24ce0be8c2" y="266.27339"/>
     <use style="fill:#1f77b4;stroke:#1f77b4;" x="139.085539" xlink:href="#m24ce0be8c2" y="266.057518"/>
     <use style="fill:#1f77b4;stroke:#1f77b4;" x="257.080011" xlink:href="#m24ce0be8c2" y="261.740088"/>
     <use style="fill:#1f77b4;stroke:#1f77b4;" x="177.651651" xlink:href="#m24ce0be8c2" y="259.941159"/>
     <use style="fill:#1f77b4;stroke:#1f77b4;" x="213.000922" xlink:href="#m24ce0be8c2" y="259.221587"/>
     <use style="fill:#1f77b4;stroke:#1f77b4;" x="258.906886" xlink:href="#m24ce0be8c2" y="256.127429"/>
     <use style="fill:#1f77b4;stroke:#1f77b4;" x="246.892255" xlink:href="#m24ce0be8c2" y="254.544371"/>
     <use style="fill:#1f77b4;stroke:#1f77b4;" x="284.245661" xlink:href="#m24ce0be8c2" y="252.889356"/>
     <use style="fill:#1f77b4;stroke:#1f77b4;" x="238.785815" xlink:href="#m24ce0be8c2" y="250.298898"/>
     <use style="fill:#1f77b4;stroke:#1f77b4;" x="234.091407" xlink:href="#m24ce0be8c2" y="249.579327"/>
     <use style="fill:#1f77b4;stroke:#1f77b4;" x="234.751971" xlink:href="#m24ce0be8c2" y="246.70104"/>
     <use style="fill:#1f77b4;stroke:#1f77b4;" x="227.225783" xlink:href="#m24ce0be8c2" y="243.103181"/>
     <use style="fill:#1f77b4;stroke:#1f77b4;" x="154.561272" xlink:href="#m24ce0be8c2" y="242.167738"/>
     <use style="fill:#1f77b4;stroke:#1f77b4;" x="301.168004" xlink:href="#m24ce0be8c2" y="241.951867"/>
     <use style="fill:#1f77b4;stroke:#1f77b4;" x="332.379545" xlink:href="#m24ce0be8c2" y="239.793152"/>
     <use style="fill:#1f77b4;stroke:#1f77b4;" x="305.957827" xlink:href="#m24ce0be8c2" y="235.619636"/>
     <use style="fill:#1f77b4;stroke:#1f77b4;" x="267.15454" xlink:href="#m24ce0be8c2" y="234.900064"/>
     <use style="fill:#1f77b4;stroke:#1f77b4;" x="275.496337" xlink:href="#m24ce0be8c2" y="234.75615"/>
     <use style="fill:#1f77b4;stroke:#1f77b4;" x="313.807283" xlink:href="#m24ce0be8c2" y="231.805906"/>
     <use style="fill:#1f77b4;stroke:#1f77b4;" x="252.416499" xlink:href="#m24ce0be8c2" y="231.661992"/>
     <use style="fill:#1f77b4;stroke:#1f77b4;" x="245.854143" xlink:href="#m24ce0be8c2" y="229.143491"/>
     <use style="fill:#1f77b4;stroke:#1f77b4;" x="270.196364" xlink:href="#m24ce0be8c2" y="225.401718"/>
     <use style="fill:#1f77b4;stroke:#1f77b4;" x="272.131921" xlink:href="#m24ce0be8c2" y="224.178446"/>
     <use style="fill:#1f77b4;stroke:#1f77b4;" x="269.593342" xlink:href="#m24ce0be8c2" y="223.027131"/>
     <use style="fill:#1f77b4;stroke:#1f77b4;" x="315.753745" xlink:href="#m24ce0be8c2" y="222.091688"/>
     <use style="fill:#1f77b4;stroke:#1f77b4;" x="321.235097" xlink:href="#m24ce0be8c2" y="219.789059"/>
     <use style="fill:#1f77b4;stroke:#1f77b4;" x="280.479958" xlink:href="#m24ce0be8c2" y="219.357316"/>
     <use style="fill:#1f77b4;stroke:#1f77b4;" x="317.09137" xlink:href="#m24ce0be8c2" y="218.637744"/>
     <use style="fill:#1f77b4;stroke:#1f77b4;" x="205.53058" xlink:href="#m24ce0be8c2" y="218.349916"/>
     <use style="fill:#1f77b4;stroke:#1f77b4;" x="329.493475" xlink:href="#m24ce0be8c2" y="216.694901"/>
     <use style="fill:#1f77b4;stroke:#1f77b4;" x="262.891407" xlink:href="#m24ce0be8c2" y="215.543586"/>
     <use style="fill:#1f77b4;stroke:#1f77b4;" x="190.442322" xlink:href="#m24ce0be8c2" y="214.608143"/>
     <use style="fill:#1f77b4;stroke:#1f77b4;" x="259.847039" xlink:href="#m24ce0be8c2" y="214.248357"/>
     <use style="fill:#1f77b4;stroke:#1f77b4;" x="224.409987" xlink:href="#m24ce0be8c2" y="213.168999"/>
     <use style="fill:#1f77b4;stroke:#1f77b4;" x="234.969223" xlink:href="#m24ce0be8c2" y="212.665299"/>
     <use style="fill:#1f77b4;stroke:#1f77b4;" x="328.429918" xlink:href="#m24ce0be8c2" y="210.86637"/>
     <use style="fill:#1f77b4;stroke:#1f77b4;" x="281.701919" xlink:href="#m24ce0be8c2" y="205.469582"/>
     <use style="fill:#1f77b4;stroke:#1f77b4;" x="303.028593" xlink:href="#m24ce0be8c2" y="203.814568"/>
     <use style="fill:#1f77b4;stroke:#1f77b4;" x="311.288333" xlink:href="#m24ce0be8c2" y="200.216709"/>
     <use style="fill:#1f77b4;stroke:#1f77b4;" x="232.679268" xlink:href="#m24ce0be8c2" y="197.41038"/>
     <use style="fill:#1f77b4;stroke:#1f77b4;" x="229.748126" xlink:href="#m24ce0be8c2" y="196.906679"/>
     <use style="fill:#1f77b4;stroke:#1f77b4;" x="239.39647" xlink:href="#m24ce0be8c2" y="195.179707"/>
     <use style="fill:#1f77b4;stroke:#1f77b4;" x="383.406011" xlink:href="#m24ce0be8c2" y="193.020992"/>
     <use style="fill:#1f77b4;stroke:#1f77b4;" x="244.831296" xlink:href="#m24ce0be8c2" y="189.639005"/>
     <use style="fill:#1f77b4;stroke:#1f77b4;" x="272.015606" xlink:href="#m24ce0be8c2" y="189.27922"/>
     <use style="fill:#1f77b4;stroke:#1f77b4;" x="312.722735" xlink:href="#m24ce0be8c2" y="187.552247"/>
     <use style="fill:#1f77b4;stroke:#1f77b4;" x="334.378712" xlink:href="#m24ce0be8c2" y="183.522646"/>
     <use style="fill:#1f77b4;stroke:#1f77b4;" x="327.725121" xlink:href="#m24ce0be8c2" y="181.579802"/>
     <use style="fill:#1f77b4;stroke:#1f77b4;" x="355.621224" xlink:href="#m24ce0be8c2" y="177.909987"/>
     <use style="fill:#1f77b4;stroke:#1f77b4;" x="277.150193" xlink:href="#m24ce0be8c2" y="173.664514"/>
     <use style="fill:#1f77b4;stroke:#1f77b4;" x="233.167792" xlink:href="#m24ce0be8c2" y="172.657114"/>
     <use style="fill:#1f77b4;stroke:#1f77b4;" x="322.292839" xlink:href="#m24ce0be8c2" y="171.433842"/>
     <use style="fill:#1f77b4;stroke:#1f77b4;" x="316.960515" xlink:href="#m24ce0be8c2" y="168.483598"/>
     <use style="fill:#1f77b4;stroke:#1f77b4;" x="326.605587" xlink:href="#m24ce0be8c2" y="167.620112"/>
     <use style="fill:#1f77b4;stroke:#1f77b4;" x="270.0666" xlink:href="#m24ce0be8c2" y="164.597911"/>
     <use style="fill:#1f77b4;stroke:#1f77b4;" x="360.138161" xlink:href="#m24ce0be8c2" y="162.223324"/>
     <use style="fill:#1f77b4;stroke:#1f77b4;" x="312.565982" xlink:href="#m24ce0be8c2" y="155.819136"/>
     <use style="fill:#1f77b4;stroke:#1f77b4;" x="303.47159" xlink:href="#m24ce0be8c2" y="145.889047"/>
     <use style="fill:#1f77b4;stroke:#1f77b4;" x="339.810994" xlink:href="#m24ce0be8c2" y="144.809689"/>
     <use style="fill:#1f77b4;stroke:#1f77b4;" x="306.583748" xlink:href="#m24ce0be8c2" y="139.988559"/>
     <use style="fill:#1f77b4;stroke:#1f77b4;" x="346.719025" xlink:href="#m24ce0be8c2" y="115.882908"/>
     <use style="fill:#1f77b4;stroke:#1f77b4;" x="376.230819" xlink:href="#m24ce0be8c2" y="114.371807"/>
     <use style="fill:#1f77b4;stroke:#1f77b4;" x="341.070469" xlink:href="#m24ce0be8c2" y="108.97502"/>
     <use style="fill:#1f77b4;stroke:#1f77b4;" x="365.282926" xlink:href="#m24ce0be8c2" y="107.391962"/>
     <use style="fill:#1f77b4;stroke:#1f77b4;" x="398.487273" xlink:href="#m24ce0be8c2" y="63.785918"/>
     <use style="fill:#1f77b4;stroke:#1f77b4;" x="385.699147" xlink:href="#m24ce0be8c2" y="53.568"/>
    </g>
   </g>
   <g id="matplotlib.axis_1">
    <g id="xtick_1">
     <g id="line2d_1">
      <defs>
       <path d="M 0 0 
L 0 3.5 
" id="m96f50972b8" style="stroke:#000000;stroke-width:0.8;"/>
      </defs>
      <g>
       <use style="stroke:#000000;stroke-width:0.8;" x="73.832727" xlink:href="#m96f50972b8" y="307.584"/>
      </g>
     </g>
     <g id="text_1">
      <!-- 0 -->
      <g transform="translate(70.651477 322.182437)scale(0.1 -0.1)">
       <defs>
        <path d="M 2034 4250 
Q 1547 4250 1301 3770 
Q 1056 3291 1056 2328 
Q 1056 1369 1301 889 
Q 1547 409 2034 409 
Q 2525 409 2770 889 
Q 3016 1369 3016 2328 
Q 3016 3291 2770 3770 
Q 2525 4250 2034 4250 
z
M 2034 4750 
Q 2819 4750 3233 4129 
Q 3647 3509 3647 2328 
Q 3647 1150 3233 529 
Q 2819 -91 2034 -91 
Q 1250 -91 836 529 
Q 422 1150 422 2328 
Q 422 3509 836 4129 
Q 1250 4750 2034 4750 
z
" id="DejaVuSans-30" transform="scale(0.015625)"/>
       </defs>
       <use xlink:href="#DejaVuSans-30"/>
      </g>
     </g>
    </g>
    <g id="xtick_2">
     <g id="line2d_2">
      <g>
       <use style="stroke:#000000;stroke-width:0.8;" x="150.164559" xlink:href="#m96f50972b8" y="307.584"/>
      </g>
     </g>
     <g id="text_2">
      <!-- 1000 -->
      <g transform="translate(137.439559 322.182437)scale(0.1 -0.1)">
       <defs>
        <path d="M 794 531 
L 1825 531 
L 1825 4091 
L 703 3866 
L 703 4441 
L 1819 4666 
L 2450 4666 
L 2450 531 
L 3481 531 
L 3481 0 
L 794 0 
L 794 531 
z
" id="DejaVuSans-31" transform="scale(0.015625)"/>
       </defs>
       <use xlink:href="#DejaVuSans-31"/>
       <use x="63.623047" xlink:href="#DejaVuSans-30"/>
       <use x="127.246094" xlink:href="#DejaVuSans-30"/>
       <use x="190.869141" xlink:href="#DejaVuSans-30"/>
      </g>
     </g>
    </g>
    <g id="xtick_3">
     <g id="line2d_3">
      <g>
       <use style="stroke:#000000;stroke-width:0.8;" x="226.49639" xlink:href="#m96f50972b8" y="307.584"/>
      </g>
     </g>
     <g id="text_3">
      <!-- 2000 -->
      <g transform="translate(213.77139 322.182437)scale(0.1 -0.1)">
       <defs>
        <path d="M 1228 531 
L 3431 531 
L 3431 0 
L 469 0 
L 469 531 
Q 828 903 1448 1529 
Q 2069 2156 2228 2338 
Q 2531 2678 2651 2914 
Q 2772 3150 2772 3378 
Q 2772 3750 2511 3984 
Q 2250 4219 1831 4219 
Q 1534 4219 1204 4116 
Q 875 4013 500 3803 
L 500 4441 
Q 881 4594 1212 4672 
Q 1544 4750 1819 4750 
Q 2544 4750 2975 4387 
Q 3406 4025 3406 3419 
Q 3406 3131 3298 2873 
Q 3191 2616 2906 2266 
Q 2828 2175 2409 1742 
Q 1991 1309 1228 531 
z
" id="DejaVuSans-32" transform="scale(0.015625)"/>
       </defs>
       <use xlink:href="#DejaVuSans-32"/>
       <use x="63.623047" xlink:href="#DejaVuSans-30"/>
       <use x="127.246094" xlink:href="#DejaVuSans-30"/>
       <use x="190.869141" xlink:href="#DejaVuSans-30"/>
      </g>
     </g>
    </g>
    <g id="xtick_4">
     <g id="line2d_4">
      <g>
       <use style="stroke:#000000;stroke-width:0.8;" x="302.828222" xlink:href="#m96f50972b8" y="307.584"/>
      </g>
     </g>
     <g id="text_4">
      <!-- 3000 -->
      <g transform="translate(290.103222 322.182437)scale(0.1 -0.1)">
       <defs>
        <path d="M 2597 2516 
Q 3050 2419 3304 2112 
Q 3559 1806 3559 1356 
Q 3559 666 3084 287 
Q 2609 -91 1734 -91 
Q 1441 -91 1130 -33 
Q 819 25 488 141 
L 488 750 
Q 750 597 1062 519 
Q 1375 441 1716 441 
Q 2309 441 2620 675 
Q 2931 909 2931 1356 
Q 2931 1769 2642 2001 
Q 2353 2234 1838 2234 
L 1294 2234 
L 1294 2753 
L 1863 2753 
Q 2328 2753 2575 2939 
Q 2822 3125 2822 3475 
Q 2822 3834 2567 4026 
Q 2313 4219 1838 4219 
Q 1578 4219 1281 4162 
Q 984 4106 628 3988 
L 628 4550 
Q 988 4650 1302 4700 
Q 1616 4750 1894 4750 
Q 2613 4750 3031 4423 
Q 3450 4097 3450 3541 
Q 3450 3153 3228 2886 
Q 3006 2619 2597 2516 
z
" id="DejaVuSans-33" transform="scale(0.015625)"/>
       </defs>
       <use xlink:href="#DejaVuSans-33"/>
       <use x="63.623047" xlink:href="#DejaVuSans-30"/>
       <use x="127.246094" xlink:href="#DejaVuSans-30"/>
       <use x="190.869141" xlink:href="#DejaVuSans-30"/>
      </g>
     </g>
    </g>
    <g id="xtick_5">
     <g id="line2d_5">
      <g>
       <use style="stroke:#000000;stroke-width:0.8;" x="379.160053" xlink:href="#m96f50972b8" y="307.584"/>
      </g>
     </g>
     <g id="text_5">
      <!-- 4000 -->
      <g transform="translate(366.435053 322.182437)scale(0.1 -0.1)">
       <defs>
        <path d="M 2419 4116 
L 825 1625 
L 2419 1625 
L 2419 4116 
z
M 2253 4666 
L 3047 4666 
L 3047 1625 
L 3713 1625 
L 3713 1100 
L 3047 1100 
L 3047 0 
L 2419 0 
L 2419 1100 
L 313 1100 
L 313 1709 
L 2253 4666 
z
" id="DejaVuSans-34" transform="scale(0.015625)"/>
       </defs>
       <use xlink:href="#DejaVuSans-34"/>
       <use x="63.623047" xlink:href="#DejaVuSans-30"/>
       <use x="127.246094" xlink:href="#DejaVuSans-30"/>
       <use x="190.869141" xlink:href="#DejaVuSans-30"/>
      </g>
     </g>
    </g>
    <g id="text_6">
     <!-- Avg. Ranking -->
     <g transform="translate(203.499844 335.860562)scale(0.1 -0.1)">
      <defs>
       <path d="M 2188 4044 
L 1331 1722 
L 3047 1722 
L 2188 4044 
z
M 1831 4666 
L 2547 4666 
L 4325 0 
L 3669 0 
L 3244 1197 
L 1141 1197 
L 716 0 
L 50 0 
L 1831 4666 
z
" id="DejaVuSans-41" transform="scale(0.015625)"/>
       <path d="M 191 3500 
L 800 3500 
L 1894 563 
L 2988 3500 
L 3597 3500 
L 2284 0 
L 1503 0 
L 191 3500 
z
" id="DejaVuSans-76" transform="scale(0.015625)"/>
       <path d="M 2906 1791 
Q 2906 2416 2648 2759 
Q 2391 3103 1925 3103 
Q 1463 3103 1205 2759 
Q 947 2416 947 1791 
Q 947 1169 1205 825 
Q 1463 481 1925 481 
Q 2391 481 2648 825 
Q 2906 1169 2906 1791 
z
M 3481 434 
Q 3481 -459 3084 -895 
Q 2688 -1331 1869 -1331 
Q 1566 -1331 1297 -1286 
Q 1028 -1241 775 -1147 
L 775 -588 
Q 1028 -725 1275 -790 
Q 1522 -856 1778 -856 
Q 2344 -856 2625 -561 
Q 2906 -266 2906 331 
L 2906 616 
Q 2728 306 2450 153 
Q 2172 0 1784 0 
Q 1141 0 747 490 
Q 353 981 353 1791 
Q 353 2603 747 3093 
Q 1141 3584 1784 3584 
Q 2172 3584 2450 3431 
Q 2728 3278 2906 2969 
L 2906 3500 
L 3481 3500 
L 3481 434 
z
" id="DejaVuSans-67" transform="scale(0.015625)"/>
       <path d="M 684 794 
L 1344 794 
L 1344 0 
L 684 0 
L 684 794 
z
" id="DejaVuSans-2e" transform="scale(0.015625)"/>
       <path id="DejaVuSans-20" transform="scale(0.015625)"/>
       <path d="M 2841 2188 
Q 3044 2119 3236 1894 
Q 3428 1669 3622 1275 
L 4263 0 
L 3584 0 
L 2988 1197 
Q 2756 1666 2539 1819 
Q 2322 1972 1947 1972 
L 1259 1972 
L 1259 0 
L 628 0 
L 628 4666 
L 2053 4666 
Q 2853 4666 3247 4331 
Q 3641 3997 3641 3322 
Q 3641 2881 3436 2590 
Q 3231 2300 2841 2188 
z
M 1259 4147 
L 1259 2491 
L 2053 2491 
Q 2509 2491 2742 2702 
Q 2975 2913 2975 3322 
Q 2975 3731 2742 3939 
Q 2509 4147 2053 4147 
L 1259 4147 
z
" id="DejaVuSans-52" transform="scale(0.015625)"/>
       <path d="M 2194 1759 
Q 1497 1759 1228 1600 
Q 959 1441 959 1056 
Q 959 750 1161 570 
Q 1363 391 1709 391 
Q 2188 391 2477 730 
Q 2766 1069 2766 1631 
L 2766 1759 
L 2194 1759 
z
M 3341 1997 
L 3341 0 
L 2766 0 
L 2766 531 
Q 2569 213 2275 61 
Q 1981 -91 1556 -91 
Q 1019 -91 701 211 
Q 384 513 384 1019 
Q 384 1609 779 1909 
Q 1175 2209 1959 2209 
L 2766 2209 
L 2766 2266 
Q 2766 2663 2505 2880 
Q 2244 3097 1772 3097 
Q 1472 3097 1187 3025 
Q 903 2953 641 2809 
L 641 3341 
Q 956 3463 1253 3523 
Q 1550 3584 1831 3584 
Q 2591 3584 2966 3190 
Q 3341 2797 3341 1997 
z
" id="DejaVuSans-61" transform="scale(0.015625)"/>
       <path d="M 3513 2113 
L 3513 0 
L 2938 0 
L 2938 2094 
Q 2938 2591 2744 2837 
Q 2550 3084 2163 3084 
Q 1697 3084 1428 2787 
Q 1159 2491 1159 1978 
L 1159 0 
L 581 0 
L 581 3500 
L 1159 3500 
L 1159 2956 
Q 1366 3272 1645 3428 
Q 1925 3584 2291 3584 
Q 2894 3584 3203 3211 
Q 3513 2838 3513 2113 
z
" id="DejaVuSans-6e" transform="scale(0.015625)"/>
       <path d="M 581 4863 
L 1159 4863 
L 1159 1991 
L 2875 3500 
L 3609 3500 
L 1753 1863 
L 3688 0 
L 2938 0 
L 1159 1709 
L 1159 0 
L 581 0 
L 581 4863 
z
" id="DejaVuSans-6b" transform="scale(0.015625)"/>
       <path d="M 603 3500 
L 1178 3500 
L 1178 0 
L 603 0 
L 603 3500 
z
M 603 4863 
L 1178 4863 
L 1178 4134 
L 603 4134 
L 603 4863 
z
" id="DejaVuSans-69" transform="scale(0.015625)"/>
      </defs>
      <use xlink:href="#DejaVuSans-41"/>
      <use x="62.533203" xlink:href="#DejaVuSans-76"/>
      <use x="121.712891" xlink:href="#DejaVuSans-67"/>
      <use x="185.189453" xlink:href="#DejaVuSans-2e"/>
      <use x="216.976562" xlink:href="#DejaVuSans-20"/>
      <use x="248.763672" xlink:href="#DejaVuSans-52"/>
      <use x="315.996094" xlink:href="#DejaVuSans-61"/>
      <use x="377.275391" xlink:href="#DejaVuSans-6e"/>
      <use x="440.654297" xlink:href="#DejaVuSans-6b"/>
      <use x="498.564453" xlink:href="#DejaVuSans-69"/>
      <use x="526.347656" xlink:href="#DejaVuSans-6e"/>
      <use x="589.726562" xlink:href="#DejaVuSans-67"/>
     </g>
    </g>
   </g>
   <g id="matplotlib.axis_2">
    <g id="ytick_1">
     <g id="line2d_6">
      <defs>
       <path d="M 0 0 
L -3.5 0 
" id="m82c94b7096" style="stroke:#000000;stroke-width:0.8;"/>
      </defs>
      <g>
       <use style="stroke:#000000;stroke-width:0.8;" x="57.6" xlink:href="#m82c94b7096" y="295.559957"/>
      </g>
     </g>
     <g id="text_7">
      <!-- 0 -->
      <g transform="translate(44.2375 299.359176)scale(0.1 -0.1)">
       <use xlink:href="#DejaVuSans-30"/>
      </g>
     </g>
    </g>
    <g id="ytick_2">
     <g id="line2d_7">
      <g>
       <use style="stroke:#000000;stroke-width:0.8;" x="57.6" xlink:href="#m82c94b7096" y="259.581373"/>
      </g>
     </g>
     <g id="text_8">
      <!-- 500 -->
      <g transform="translate(31.5125 263.380592)scale(0.1 -0.1)">
       <defs>
        <path d="M 691 4666 
L 3169 4666 
L 3169 4134 
L 1269 4134 
L 1269 2991 
Q 1406 3038 1543 3061 
Q 1681 3084 1819 3084 
Q 2600 3084 3056 2656 
Q 3513 2228 3513 1497 
Q 3513 744 3044 326 
Q 2575 -91 1722 -91 
Q 1428 -91 1123 -41 
Q 819 9 494 109 
L 494 744 
Q 775 591 1075 516 
Q 1375 441 1709 441 
Q 2250 441 2565 725 
Q 2881 1009 2881 1497 
Q 2881 1984 2565 2268 
Q 2250 2553 1709 2553 
Q 1456 2553 1204 2497 
Q 953 2441 691 2322 
L 691 4666 
z
" id="DejaVuSans-35" transform="scale(0.015625)"/>
       </defs>
       <use xlink:href="#DejaVuSans-35"/>
       <use x="63.623047" xlink:href="#DejaVuSans-30"/>
       <use x="127.246094" xlink:href="#DejaVuSans-30"/>
      </g>
     </g>
    </g>
    <g id="ytick_3">
     <g id="line2d_8">
      <g>
       <use style="stroke:#000000;stroke-width:0.8;" x="57.6" xlink:href="#m82c94b7096" y="223.602789"/>
      </g>
     </g>
     <g id="text_9">
      <!-- 1000 -->
      <g transform="translate(25.15 227.402008)scale(0.1 -0.1)">
       <use xlink:href="#DejaVuSans-31"/>
       <use x="63.623047" xlink:href="#DejaVuSans-30"/>
       <use x="127.246094" xlink:href="#DejaVuSans-30"/>
       <use x="190.869141" xlink:href="#DejaVuSans-30"/>
      </g>
     </g>
    </g>
    <g id="ytick_4">
     <g id="line2d_9">
      <g>
       <use style="stroke:#000000;stroke-width:0.8;" x="57.6" xlink:href="#m82c94b7096" y="187.624205"/>
      </g>
     </g>
     <g id="text_10">
      <!-- 1500 -->
      <g transform="translate(25.15 191.423423)scale(0.1 -0.1)">
       <use xlink:href="#DejaVuSans-31"/>
       <use x="63.623047" xlink:href="#DejaVuSans-35"/>
       <use x="127.246094" xlink:href="#DejaVuSans-30"/>
       <use x="190.869141" xlink:href="#DejaVuSans-30"/>
      </g>
     </g>
    </g>
    <g id="ytick_5">
     <g id="line2d_10">
      <g>
       <use style="stroke:#000000;stroke-width:0.8;" x="57.6" xlink:href="#m82c94b7096" y="151.64562"/>
      </g>
     </g>
     <g id="text_11">
      <!-- 2000 -->
      <g transform="translate(25.15 155.444839)scale(0.1 -0.1)">
       <use xlink:href="#DejaVuSans-32"/>
       <use x="63.623047" xlink:href="#DejaVuSans-30"/>
       <use x="127.246094" xlink:href="#DejaVuSans-30"/>
       <use x="190.869141" xlink:href="#DejaVuSans-30"/>
      </g>
     </g>
    </g>
    <g id="ytick_6">
     <g id="line2d_11">
      <g>
       <use style="stroke:#000000;stroke-width:0.8;" x="57.6" xlink:href="#m82c94b7096" y="115.667036"/>
      </g>
     </g>
     <g id="text_12">
      <!-- 2500 -->
      <g transform="translate(25.15 119.466255)scale(0.1 -0.1)">
       <use xlink:href="#DejaVuSans-32"/>
       <use x="63.623047" xlink:href="#DejaVuSans-35"/>
       <use x="127.246094" xlink:href="#DejaVuSans-30"/>
       <use x="190.869141" xlink:href="#DejaVuSans-30"/>
      </g>
     </g>
    </g>
    <g id="ytick_7">
     <g id="line2d_12">
      <g>
       <use style="stroke:#000000;stroke-width:0.8;" x="57.6" xlink:href="#m82c94b7096" y="79.688452"/>
      </g>
     </g>
     <g id="text_13">
      <!-- 3000 -->
      <g transform="translate(25.15 83.487671)scale(0.1 -0.1)">
       <use xlink:href="#DejaVuSans-33"/>
       <use x="63.623047" xlink:href="#DejaVuSans-30"/>
       <use x="127.246094" xlink:href="#DejaVuSans-30"/>
       <use x="190.869141" xlink:href="#DejaVuSans-30"/>
      </g>
     </g>
    </g>
    <g id="ytick_8">
     <g id="line2d_13">
      <g>
       <use style="stroke:#000000;stroke-width:0.8;" x="57.6" xlink:href="#m82c94b7096" y="43.709868"/>
      </g>
     </g>
     <g id="text_14">
      <!-- 3500 -->
      <g transform="translate(25.15 47.509087)scale(0.1 -0.1)">
       <use xlink:href="#DejaVuSans-33"/>
       <use x="63.623047" xlink:href="#DejaVuSans-35"/>
       <use x="127.246094" xlink:href="#DejaVuSans-30"/>
       <use x="190.869141" xlink:href="#DejaVuSans-30"/>
      </g>
     </g>
    </g>
    <g id="text_15">
     <!-- Highest Ranking -->
     <g transform="translate(19.070312 215.472531)rotate(-90)scale(0.1 -0.1)">
      <defs>
       <path d="M 628 4666 
L 1259 4666 
L 1259 2753 
L 3553 2753 
L 3553 4666 
L 4184 4666 
L 4184 0 
L 3553 0 
L 3553 2222 
L 1259 2222 
L 1259 0 
L 628 0 
L 628 4666 
z
" id="DejaVuSans-48" transform="scale(0.015625)"/>
       <path d="M 3513 2113 
L 3513 0 
L 2938 0 
L 2938 2094 
Q 2938 2591 2744 2837 
Q 2550 3084 2163 3084 
Q 1697 3084 1428 2787 
Q 1159 2491 1159 1978 
L 1159 0 
L 581 0 
L 581 4863 
L 1159 4863 
L 1159 2956 
Q 1366 3272 1645 3428 
Q 1925 3584 2291 3584 
Q 2894 3584 3203 3211 
Q 3513 2838 3513 2113 
z
" id="DejaVuSans-68" transform="scale(0.015625)"/>
       <path d="M 3597 1894 
L 3597 1613 
L 953 1613 
Q 991 1019 1311 708 
Q 1631 397 2203 397 
Q 2534 397 2845 478 
Q 3156 559 3463 722 
L 3463 178 
Q 3153 47 2828 -22 
Q 2503 -91 2169 -91 
Q 1331 -91 842 396 
Q 353 884 353 1716 
Q 353 2575 817 3079 
Q 1281 3584 2069 3584 
Q 2775 3584 3186 3129 
Q 3597 2675 3597 1894 
z
M 3022 2063 
Q 3016 2534 2758 2815 
Q 2500 3097 2075 3097 
Q 1594 3097 1305 2825 
Q 1016 2553 972 2059 
L 3022 2063 
z
" id="DejaVuSans-65" transform="scale(0.015625)"/>
       <path d="M 2834 3397 
L 2834 2853 
Q 2591 2978 2328 3040 
Q 2066 3103 1784 3103 
Q 1356 3103 1142 2972 
Q 928 2841 928 2578 
Q 928 2378 1081 2264 
Q 1234 2150 1697 2047 
L 1894 2003 
Q 2506 1872 2764 1633 
Q 3022 1394 3022 966 
Q 3022 478 2636 193 
Q 2250 -91 1575 -91 
Q 1294 -91 989 -36 
Q 684 19 347 128 
L 347 722 
Q 666 556 975 473 
Q 1284 391 1588 391 
Q 1994 391 2212 530 
Q 2431 669 2431 922 
Q 2431 1156 2273 1281 
Q 2116 1406 1581 1522 
L 1381 1569 
Q 847 1681 609 1914 
Q 372 2147 372 2553 
Q 372 3047 722 3315 
Q 1072 3584 1716 3584 
Q 2034 3584 2315 3537 
Q 2597 3491 2834 3397 
z
" id="DejaVuSans-73" transform="scale(0.015625)"/>
       <path d="M 1172 4494 
L 1172 3500 
L 2356 3500 
L 2356 3053 
L 1172 3053 
L 1172 1153 
Q 1172 725 1289 603 
Q 1406 481 1766 481 
L 2356 481 
L 2356 0 
L 1766 0 
Q 1100 0 847 248 
Q 594 497 594 1153 
L 594 3053 
L 172 3053 
L 172 3500 
L 594 3500 
L 594 4494 
L 1172 4494 
z
" id="DejaVuSans-74" transform="scale(0.015625)"/>
      </defs>
      <use xlink:href="#DejaVuSans-48"/>
      <use x="75.195312" xlink:href="#DejaVuSans-69"/>
      <use x="102.978516" xlink:href="#DejaVuSans-67"/>
      <use x="166.455078" xlink:href="#DejaVuSans-68"/>
      <use x="229.833984" xlink:href="#DejaVuSans-65"/>
      <use x="291.357422" xlink:href="#DejaVuSans-73"/>
      <use x="343.457031" xlink:href="#DejaVuSans-74"/>
      <use x="382.666016" xlink:href="#DejaVuSans-20"/>
      <use x="414.453125" xlink:href="#DejaVuSans-52"/>
      <use x="481.685547" xlink:href="#DejaVuSans-61"/>
      <use x="542.964844" xlink:href="#DejaVuSans-6e"/>
      <use x="606.34375" xlink:href="#DejaVuSans-6b"/>
      <use x="664.253906" xlink:href="#DejaVuSans-69"/>
      <use x="692.037109" xlink:href="#DejaVuSans-6e"/>
      <use x="755.416016" xlink:href="#DejaVuSans-67"/>
     </g>
    </g>
   </g>
   <g id="LineCollection_1">
    <path clip-path="url(#p5c14f88bb5)" d="M 73.832727 281.168523 
L 302.828222 281.168523 
" style="fill:none;stroke:#ff0000;"/>
   </g>
   <g id="patch_3">
    <path d="M 57.6 307.584 
L 57.6 41.472 
" style="fill:none;stroke:#000000;stroke-linecap:square;stroke-linejoin:miter;stroke-width:0.8;"/>
   </g>
   <g id="patch_4">
    <path d="M 414.72 307.584 
L 414.72 41.472 
" style="fill:none;stroke:#000000;stroke-linecap:square;stroke-linejoin:miter;stroke-width:0.8;"/>
   </g>
   <g id="patch_5">
    <path d="M 57.6 307.584 
L 414.72 307.584 
" style="fill:none;stroke:#000000;stroke-linecap:square;stroke-linejoin:miter;stroke-width:0.8;"/>
   </g>
   <g id="patch_6">
    <path d="M 57.6 41.472 
L 414.72 41.472 
" style="fill:none;stroke:#000000;stroke-linecap:square;stroke-linejoin:miter;stroke-width:0.8;"/>
   </g>
  </g>
 </g>
 <defs>
  <clipPath id="p5c14f88bb5">
   <rect height="266.112" width="357.12" x="57.6" y="41.472"/>
  </clipPath>
 </defs>
</svg>
