<?xml version="1.0" encoding="utf-8" standalone="no"?>
<!DOCTYPE svg PUBLIC "-//W3C//DTD SVG 1.1//EN"
  "http://www.w3.org/Graphics/SVG/1.1/DTD/svg11.dtd">
<svg height="345.6pt" version="1.1" viewBox="0 0 460.8 345.6" width="460.8pt" xmlns="http://www.w3.org/2000/svg" xmlns:xlink="http://www.w3.org/1999/xlink">
 <metadata>
  <rdf:RDF xmlns:cc="http://creativecommons.org/ns#" xmlns:dc="http://purl.org/dc/elements/1.1/" xmlns:rdf="http://www.w3.org/1999/02/22-rdf-syntax-ns#">
   <cc:Work>
    <dc:type rdf:resource="http://purl.org/dc/dcmitype/StillImage"/>
    <dc:date>2021-09-06T21:36:42.293688</dc:date>
    <dc:format>image/svg+xml</dc:format>
    <dc:creator>
     <cc:Agent>
      <dc:title>Matplotlib v3.4.3, https://matplotlib.org/</dc:title>
     </cc:Agent>
    </dc:creator>
   </cc:Work>
  </rdf:RDF>
 </metadata>
 <defs>
  <style type="text/css">*{stroke-linecap:butt;stroke-linejoin:round;}</style>
 </defs>
 <g id="figure_1">
  <g id="patch_1">
   <path d="M 0 345.6 
L 460.8 345.6 
L 460.8 0 
L 0 0 
z
" style="fill:#ffffff;"/>
  </g>
  <g id="axes_1">
   <g id="patch_2">
    <path d="M 57.6 307.584 
L 414.72 307.584 
L 414.72 41.472 
L 57.6 41.472 
z
" style="fill:#ffffff;"/>
   </g>
   <g id="PathCollection_1">
    <defs>
     <path d="M 0 3 
C 0.795609 3 1.55874 2.683901 2.12132 2.12132 
C 2.683901 1.55874 3 0.795609 3 0 
C 3 -0.795609 2.683901 -1.55874 2.12132 -2.12132 
C 1.55874 -2.683901 0.795609 -3 0 -3 
C -0.795609 -3 -1.55874 -2.683901 -2.12132 -2.12132 
C -2.683901 -1.55874 -3 -0.795609 -3 0 
C -3 0.795609 -2.683901 1.55874 -2.12132 2.12132 
C -1.55874 2.683901 -0.795609 3 0 3 
z
" id="m030b6566fb" style="stroke:#1f77b4;"/>
    </defs>
    <g clip-path="url(#p64256f6a17)">
     <use style="fill:#1f77b4;stroke:#1f77b4;" x="73.832727" xlink:href="#m030b6566fb" y="295.033267"/>
     <use style="fill:#1f77b4;stroke:#1f77b4;" x="74.608882" xlink:href="#m030b6566fb" y="168.874008"/>
     <use style="fill:#1f77b4;stroke:#1f77b4;" x="74.94152" xlink:href="#m030b6566fb" y="212.458326"/>
     <use style="fill:#1f77b4;stroke:#1f77b4;" x="75.274158" xlink:href="#m030b6566fb" y="248.255228"/>
     <use style="fill:#1f77b4;stroke:#1f77b4;" x="75.828554" xlink:href="#m030b6566fb" y="286.87399"/>
     <use style="fill:#1f77b4;stroke:#1f77b4;" x="76.050313" xlink:href="#m030b6566fb" y="176.718377"/>
     <use style="fill:#1f77b4;stroke:#1f77b4;" x="76.604709" xlink:href="#m030b6566fb" y="253.767469"/>
     <use style="fill:#1f77b4;stroke:#1f77b4;" x="77.824382" xlink:href="#m030b6566fb" y="259.30282"/>
     <use style="fill:#1f77b4;stroke:#1f77b4;" x="78.04614" xlink:href="#m030b6566fb" y="267.054685"/>
     <use style="fill:#1f77b4;stroke:#1f77b4;" x="78.267899" xlink:href="#m030b6566fb" y="288.243655"/>
     <use style="fill:#1f77b4;stroke:#1f77b4;" x="78.822295" xlink:href="#m030b6566fb" y="71.584094"/>
     <use style="fill:#1f77b4;stroke:#1f77b4;" x="79.265812" xlink:href="#m030b6566fb" y="105.13052"/>
     <use style="fill:#1f77b4;stroke:#1f77b4;" x="79.487571" xlink:href="#m030b6566fb" y="245.322543"/>
     <use style="fill:#1f77b4;stroke:#1f77b4;" x="80.596364" xlink:href="#m030b6566fb" y="146.226446"/>
     <use style="fill:#1f77b4;stroke:#1f77b4;" x="81.261639" xlink:href="#m030b6566fb" y="137.357147"/>
     <use style="fill:#1f77b4;stroke:#1f77b4;" x="81.705156" xlink:href="#m030b6566fb" y="272.1727"/>
     <use style="fill:#1f77b4;stroke:#1f77b4;" x="82.70307" xlink:href="#m030b6566fb" y="280.558902"/>
     <use style="fill:#1f77b4;stroke:#1f77b4;" x="83.146587" xlink:href="#m030b6566fb" y="169.181844"/>
     <use style="fill:#1f77b4;stroke:#1f77b4;" x="83.368346" xlink:href="#m030b6566fb" y="117.785395"/>
     <use style="fill:#1f77b4;stroke:#1f77b4;" x="83.590104" xlink:href="#m030b6566fb" y="160.761055"/>
     <use style="fill:#1f77b4;stroke:#1f77b4;" x="84.920656" xlink:href="#m030b6566fb" y="132.666359"/>
     <use style="fill:#1f77b4;stroke:#1f77b4;" x="85.696811" xlink:href="#m030b6566fb" y="277.634438"/>
     <use style="fill:#1f77b4;stroke:#1f77b4;" x="86.251207" xlink:href="#m030b6566fb" y="286.829903"/>
     <use style="fill:#1f77b4;stroke:#1f77b4;" x="87.581759" xlink:href="#m030b6566fb" y="53.568"/>
     <use style="fill:#1f77b4;stroke:#1f77b4;" x="87.692638" xlink:href="#m030b6566fb" y="280.613939"/>
     <use style="fill:#1f77b4;stroke:#1f77b4;" x="89.134069" xlink:href="#m030b6566fb" y="96.11305"/>
     <use style="fill:#1f77b4;stroke:#1f77b4;" x="89.577586" xlink:href="#m030b6566fb" y="208.24062"/>
     <use style="fill:#1f77b4;stroke:#1f77b4;" x="89.910224" xlink:href="#m030b6566fb" y="268.343137"/>
     <use style="fill:#1f77b4;stroke:#1f77b4;" x="90.46462" xlink:href="#m030b6566fb" y="245.448539"/>
     <use style="fill:#1f77b4;stroke:#1f77b4;" x="91.240775" xlink:href="#m030b6566fb" y="193.46036"/>
     <use style="fill:#1f77b4;stroke:#1f77b4;" x="93.236602" xlink:href="#m030b6566fb" y="237.40815"/>
     <use style="fill:#1f77b4;stroke:#1f77b4;" x="93.901878" xlink:href="#m030b6566fb" y="176.123172"/>
     <use style="fill:#1f77b4;stroke:#1f77b4;" x="95.343308" xlink:href="#m030b6566fb" y="167.275455"/>
     <use style="fill:#1f77b4;stroke:#1f77b4;" x="95.786826" xlink:href="#m030b6566fb" y="275.711798"/>
     <use style="fill:#1f77b4;stroke:#1f77b4;" x="98.115291" xlink:href="#m030b6566fb" y="262.854164"/>
     <use style="fill:#1f77b4;stroke:#1f77b4;" x="99.556721" xlink:href="#m030b6566fb" y="101.890597"/>
     <use style="fill:#1f77b4;stroke:#1f77b4;" x="100.998152" xlink:href="#m030b6566fb" y="212.641662"/>
     <use style="fill:#1f77b4;stroke:#1f77b4;" x="103.548376" xlink:href="#m030b6566fb" y="62.810274"/>
     <use style="fill:#1f77b4;stroke:#1f77b4;" x="104.546289" xlink:href="#m030b6566fb" y="266.632143"/>
     <use style="fill:#1f77b4;stroke:#1f77b4;" x="106.098599" xlink:href="#m030b6566fb" y="228.332172"/>
     <use style="fill:#1f77b4;stroke:#1f77b4;" x="108.205306" xlink:href="#m030b6566fb" y="130.641298"/>
     <use style="fill:#1f77b4;stroke:#1f77b4;" x="109.646736" xlink:href="#m030b6566fb" y="82.655106"/>
     <use style="fill:#1f77b4;stroke:#1f77b4;" x="109.868495" xlink:href="#m030b6566fb" y="215.553546"/>
     <use style="fill:#1f77b4;stroke:#1f77b4;" x="110.755529" xlink:href="#m030b6566fb" y="148.296802"/>
     <use style="fill:#1f77b4;stroke:#1f77b4;" x="111.975201" xlink:href="#m030b6566fb" y="110.668657"/>
     <use style="fill:#1f77b4;stroke:#1f77b4;" x="112.08608" xlink:href="#m030b6566fb" y="136.112342"/>
     <use style="fill:#1f77b4;stroke:#1f77b4;" x="112.307839" xlink:href="#m030b6566fb" y="229.619899"/>
     <use style="fill:#1f77b4;stroke:#1f77b4;" x="116.299493" xlink:href="#m030b6566fb" y="250.876088"/>
     <use style="fill:#1f77b4;stroke:#1f77b4;" x="116.85389" xlink:href="#m030b6566fb" y="111.132254"/>
     <use style="fill:#1f77b4;stroke:#1f77b4;" x="118.4062" xlink:href="#m030b6566fb" y="73.931313"/>
     <use style="fill:#1f77b4;stroke:#1f77b4;" x="118.849717" xlink:href="#m030b6566fb" y="131.388402"/>
     <use style="fill:#1f77b4;stroke:#1f77b4;" x="121.178182" xlink:href="#m030b6566fb" y="266.111616"/>
     <use style="fill:#1f77b4;stroke:#1f77b4;" x="121.843458" xlink:href="#m030b6566fb" y="212.389579"/>
     <use style="fill:#1f77b4;stroke:#1f77b4;" x="124.393681" xlink:href="#m030b6566fb" y="107.352332"/>
     <use style="fill:#1f77b4;stroke:#1f77b4;" x="124.61544" xlink:href="#m030b6566fb" y="155.235877"/>
     <use style="fill:#1f77b4;stroke:#1f77b4;" x="126.16775" xlink:href="#m030b6566fb" y="218.900244"/>
     <use style="fill:#1f77b4;stroke:#1f77b4;" x="127.941818" xlink:href="#m030b6566fb" y="175.406309"/>
     <use style="fill:#1f77b4;stroke:#1f77b4;" x="129.715887" xlink:href="#m030b6566fb" y="149.853548"/>
     <use style="fill:#1f77b4;stroke:#1f77b4;" x="130.381162" xlink:href="#m030b6566fb" y="180.256375"/>
     <use style="fill:#1f77b4;stroke:#1f77b4;" x="130.492042" xlink:href="#m030b6566fb" y="231.170928"/>
     <use style="fill:#1f77b4;stroke:#1f77b4;" x="132.26611" xlink:href="#m030b6566fb" y="97.42403"/>
     <use style="fill:#1f77b4;stroke:#1f77b4;" x="133.264024" xlink:href="#m030b6566fb" y="104.955179"/>
     <use style="fill:#1f77b4;stroke:#1f77b4;" x="136.92304" xlink:href="#m030b6566fb" y="114.224039"/>
     <use style="fill:#1f77b4;stroke:#1f77b4;" x="137.144799" xlink:href="#m030b6566fb" y="131.191152"/>
     <use style="fill:#1f77b4;stroke:#1f77b4;" x="139.473264" xlink:href="#m030b6566fb" y="121.485646"/>
     <use style="fill:#1f77b4;stroke:#1f77b4;" x="143.464918" xlink:href="#m030b6566fb" y="132.701308"/>
     <use style="fill:#1f77b4;stroke:#1f77b4;" x="144.130194" xlink:href="#m030b6566fb" y="250.206153"/>
     <use style="fill:#1f77b4;stroke:#1f77b4;" x="145.793383" xlink:href="#m030b6566fb" y="139.52186"/>
     <use style="fill:#1f77b4;stroke:#1f77b4;" x="150.450313" xlink:href="#m030b6566fb" y="159.170761"/>
     <use style="fill:#1f77b4;stroke:#1f77b4;" x="151.891744" xlink:href="#m030b6566fb" y="80.690047"/>
     <use style="fill:#1f77b4;stroke:#1f77b4;" x="153.776692" xlink:href="#m030b6566fb" y="92.752197"/>
     <use style="fill:#1f77b4;stroke:#1f77b4;" x="154.220209" xlink:href="#m030b6566fb" y="167.6322"/>
     <use style="fill:#1f77b4;stroke:#1f77b4;" x="155.994277" xlink:href="#m030b6566fb" y="257.339827"/>
     <use style="fill:#1f77b4;stroke:#1f77b4;" x="156.326915" xlink:href="#m030b6566fb" y="146.573415"/>
     <use style="fill:#1f77b4;stroke:#1f77b4;" x="158.544501" xlink:href="#m030b6566fb" y="104.609279"/>
     <use style="fill:#1f77b4;stroke:#1f77b4;" x="159.653294" xlink:href="#m030b6566fb" y="128.580534"/>
     <use style="fill:#1f77b4;stroke:#1f77b4;" x="161.76" xlink:href="#m030b6566fb" y="129.329638"/>
     <use style="fill:#1f77b4;stroke:#1f77b4;" x="161.870879" xlink:href="#m030b6566fb" y="178.035164"/>
     <use style="fill:#1f77b4;stroke:#1f77b4;" x="164.642861" xlink:href="#m030b6566fb" y="72.479464"/>
     <use style="fill:#1f77b4;stroke:#1f77b4;" x="166.084292" xlink:href="#m030b6566fb" y="129.834217"/>
     <use style="fill:#1f77b4;stroke:#1f77b4;" x="167.414844" xlink:href="#m030b6566fb" y="148.776375"/>
     <use style="fill:#1f77b4;stroke:#1f77b4;" x="168.745395" xlink:href="#m030b6566fb" y="170.34999"/>
     <use style="fill:#1f77b4;stroke:#1f77b4;" x="169.743308" xlink:href="#m030b6566fb" y="179.703065"/>
     <use style="fill:#1f77b4;stroke:#1f77b4;" x="171.960894" xlink:href="#m030b6566fb" y="145.5448"/>
     <use style="fill:#1f77b4;stroke:#1f77b4;" x="175.176393" xlink:href="#m030b6566fb" y="144.45109"/>
     <use style="fill:#1f77b4;stroke:#1f77b4;" x="175.841669" xlink:href="#m030b6566fb" y="214.821219"/>
     <use style="fill:#1f77b4;stroke:#1f77b4;" x="176.063428" xlink:href="#m030b6566fb" y="170.026719"/>
     <use style="fill:#1f77b4;stroke:#1f77b4;" x="178.059255" xlink:href="#m030b6566fb" y="100.59046"/>
     <use style="fill:#1f77b4;stroke:#1f77b4;" x="179.500686" xlink:href="#m030b6566fb" y="169.529406"/>
     <use style="fill:#1f77b4;stroke:#1f77b4;" x="182.827064" xlink:href="#m030b6566fb" y="202.570261"/>
     <use style="fill:#1f77b4;stroke:#1f77b4;" x="185.709925" xlink:href="#m030b6566fb" y="152.118363"/>
     <use style="fill:#1f77b4;stroke:#1f77b4;" x="187.151356" xlink:href="#m030b6566fb" y="153.501633"/>
     <use style="fill:#1f77b4;stroke:#1f77b4;" x="188.925425" xlink:href="#m030b6566fb" y="161.953747"/>
     <use style="fill:#1f77b4;stroke:#1f77b4;" x="190.477735" xlink:href="#m030b6566fb" y="129.804863"/>
     <use style="fill:#1f77b4;stroke:#1f77b4;" x="190.810373" xlink:href="#m030b6566fb" y="145.908793"/>
     <use style="fill:#1f77b4;stroke:#1f77b4;" x="190.921252" xlink:href="#m030b6566fb" y="234.301107"/>
     <use style="fill:#1f77b4;stroke:#1f77b4;" x="191.808286" xlink:href="#m030b6566fb" y="156.580797"/>
     <use style="fill:#1f77b4;stroke:#1f77b4;" x="192.251803" xlink:href="#m030b6566fb" y="110.621123"/>
     <use style="fill:#1f77b4;stroke:#1f77b4;" x="195.245544" xlink:href="#m030b6566fb" y="114.799007"/>
     <use style="fill:#1f77b4;stroke:#1f77b4;" x="197.019613" xlink:href="#m030b6566fb" y="173.487947"/>
     <use style="fill:#1f77b4;stroke:#1f77b4;" x="198.239285" xlink:href="#m030b6566fb" y="138.506797"/>
     <use style="fill:#1f77b4;stroke:#1f77b4;" x="198.682802" xlink:href="#m030b6566fb" y="108.736855"/>
     <use style="fill:#1f77b4;stroke:#1f77b4;" x="200.678629" xlink:href="#m030b6566fb" y="182.421862"/>
     <use style="fill:#1f77b4;stroke:#1f77b4;" x="201.011267" xlink:href="#m030b6566fb" y="201.685046"/>
     <use style="fill:#1f77b4;stroke:#1f77b4;" x="203.228852" xlink:href="#m030b6566fb" y="211.924585"/>
     <use style="fill:#1f77b4;stroke:#1f77b4;" x="206.111714" xlink:href="#m030b6566fb" y="102.18191"/>
     <use style="fill:#1f77b4;stroke:#1f77b4;" x="208.661937" xlink:href="#m030b6566fb" y="182.648367"/>
     <use style="fill:#1f77b4;stroke:#1f77b4;" x="209.77073" xlink:href="#m030b6566fb" y="198.408536"/>
     <use style="fill:#1f77b4;stroke:#1f77b4;" x="216.201729" xlink:href="#m030b6566fb" y="168.766614"/>
     <use style="fill:#1f77b4;stroke:#1f77b4;" x="217.643159" xlink:href="#m030b6566fb" y="149.347701"/>
     <use style="fill:#1f77b4;stroke:#1f77b4;" x="217.864918" xlink:href="#m030b6566fb" y="175.477121"/>
     <use style="fill:#1f77b4;stroke:#1f77b4;" x="226.069985" xlink:href="#m030b6566fb" y="189.196049"/>
     <use style="fill:#1f77b4;stroke:#1f77b4;" x="228.39845" xlink:href="#m030b6566fb" y="250.290468"/>
     <use style="fill:#1f77b4;stroke:#1f77b4;" x="234.829449" xlink:href="#m030b6566fb" y="191.688037"/>
     <use style="fill:#1f77b4;stroke:#1f77b4;" x="235.494724" xlink:href="#m030b6566fb" y="125.449534"/>
     <use style="fill:#1f77b4;stroke:#1f77b4;" x="235.938241" xlink:href="#m030b6566fb" y="117.696334"/>
     <use style="fill:#1f77b4;stroke:#1f77b4;" x="240.151654" xlink:href="#m030b6566fb" y="163.701688"/>
     <use style="fill:#1f77b4;stroke:#1f77b4;" x="243.92155" xlink:href="#m030b6566fb" y="165.240343"/>
     <use style="fill:#1f77b4;stroke:#1f77b4;" x="245.252101" xlink:href="#m030b6566fb" y="237.666868"/>
     <use style="fill:#1f77b4;stroke:#1f77b4;" x="245.806498" xlink:href="#m030b6566fb" y="126.627201"/>
     <use style="fill:#1f77b4;stroke:#1f77b4;" x="246.360894" xlink:href="#m030b6566fb" y="137.071518"/>
     <use style="fill:#1f77b4;stroke:#1f77b4;" x="255.009478" xlink:href="#m030b6566fb" y="167.22779"/>
     <use style="fill:#1f77b4;stroke:#1f77b4;" x="269.534665" xlink:href="#m030b6566fb" y="164.915939"/>
     <use style="fill:#1f77b4;stroke:#1f77b4;" x="279.62468" xlink:href="#m030b6566fb" y="170.088219"/>
     <use style="fill:#1f77b4;stroke:#1f77b4;" x="286.831833" xlink:href="#m030b6566fb" y="151.814166"/>
     <use style="fill:#1f77b4;stroke:#1f77b4;" x="306.013949" xlink:href="#m030b6566fb" y="177.973288"/>
     <use style="fill:#1f77b4;stroke:#1f77b4;" x="306.124829" xlink:href="#m030b6566fb" y="168.838822"/>
     <use style="fill:#1f77b4;stroke:#1f77b4;" x="339.277735" xlink:href="#m030b6566fb" y="235.798721"/>
     <use style="fill:#1f77b4;stroke:#1f77b4;" x="361.231833" xlink:href="#m030b6566fb" y="206.159849"/>
     <use style="fill:#1f77b4;stroke:#1f77b4;" x="363.671177" xlink:href="#m030b6566fb" y="178.002599"/>
     <use style="fill:#1f77b4;stroke:#1f77b4;" x="364.003815" xlink:href="#m030b6566fb" y="201.830299"/>
     <use style="fill:#1f77b4;stroke:#1f77b4;" x="366.33228" xlink:href="#m030b6566fb" y="189.624387"/>
     <use style="fill:#1f77b4;stroke:#1f77b4;" x="387.621103" xlink:href="#m030b6566fb" y="249.354118"/>
     <use style="fill:#1f77b4;stroke:#1f77b4;" x="396.602325" xlink:href="#m030b6566fb" y="209.458146"/>
     <use style="fill:#1f77b4;stroke:#1f77b4;" x="398.487273" xlink:href="#m030b6566fb" y="215.792288"/>
    </g>
   </g>
   <g id="matplotlib.axis_1">
    <g id="xtick_1">
     <g id="line2d_1">
      <defs>
       <path d="M 0 0 
L 0 3.5 
" id="m87a2dd9f90" style="stroke:#000000;stroke-width:0.8;"/>
      </defs>
      <g>
       <use style="stroke:#000000;stroke-width:0.8;" x="73.721848" xlink:href="#m87a2dd9f90" y="307.584"/>
      </g>
     </g>
     <g id="text_1">
      <!-- 0 -->
      <g transform="translate(70.540598 322.182437)scale(0.1 -0.1)">
       <defs>
        <path d="M 2034 4250 
Q 1547 4250 1301 3770 
Q 1056 3291 1056 2328 
Q 1056 1369 1301 889 
Q 1547 409 2034 409 
Q 2525 409 2770 889 
Q 3016 1369 3016 2328 
Q 3016 3291 2770 3770 
Q 2525 4250 2034 4250 
z
M 2034 4750 
Q 2819 4750 3233 4129 
Q 3647 3509 3647 2328 
Q 3647 1150 3233 529 
Q 2819 -91 2034 -91 
Q 1250 -91 836 529 
Q 422 1150 422 2328 
Q 422 3509 836 4129 
Q 1250 4750 2034 4750 
z
" id="DejaVuSans-30" transform="scale(0.015625)"/>
       </defs>
       <use xlink:href="#DejaVuSans-30"/>
      </g>
     </g>
    </g>
    <g id="xtick_2">
     <g id="line2d_2">
      <g>
       <use style="stroke:#000000;stroke-width:0.8;" x="129.16149" xlink:href="#m87a2dd9f90" y="307.584"/>
      </g>
     </g>
     <g id="text_2">
      <!-- 500 -->
      <g transform="translate(119.61774 322.182437)scale(0.1 -0.1)">
       <defs>
        <path d="M 691 4666 
L 3169 4666 
L 3169 4134 
L 1269 4134 
L 1269 2991 
Q 1406 3038 1543 3061 
Q 1681 3084 1819 3084 
Q 2600 3084 3056 2656 
Q 3513 2228 3513 1497 
Q 3513 744 3044 326 
Q 2575 -91 1722 -91 
Q 1428 -91 1123 -41 
Q 819 9 494 109 
L 494 744 
Q 775 591 1075 516 
Q 1375 441 1709 441 
Q 2250 441 2565 725 
Q 2881 1009 2881 1497 
Q 2881 1984 2565 2268 
Q 2250 2553 1709 2553 
Q 1456 2553 1204 2497 
Q 953 2441 691 2322 
L 691 4666 
z
" id="DejaVuSans-35" transform="scale(0.015625)"/>
       </defs>
       <use xlink:href="#DejaVuSans-35"/>
       <use x="63.623047" xlink:href="#DejaVuSans-30"/>
       <use x="127.246094" xlink:href="#DejaVuSans-30"/>
      </g>
     </g>
    </g>
    <g id="xtick_3">
     <g id="line2d_3">
      <g>
       <use style="stroke:#000000;stroke-width:0.8;" x="184.601133" xlink:href="#m87a2dd9f90" y="307.584"/>
      </g>
     </g>
     <g id="text_3">
      <!-- 1000 -->
      <g transform="translate(171.876133 322.182437)scale(0.1 -0.1)">
       <defs>
        <path d="M 794 531 
L 1825 531 
L 1825 4091 
L 703 3866 
L 703 4441 
L 1819 4666 
L 2450 4666 
L 2450 531 
L 3481 531 
L 3481 0 
L 794 0 
L 794 531 
z
" id="DejaVuSans-31" transform="scale(0.015625)"/>
       </defs>
       <use xlink:href="#DejaVuSans-31"/>
       <use x="63.623047" xlink:href="#DejaVuSans-30"/>
       <use x="127.246094" xlink:href="#DejaVuSans-30"/>
       <use x="190.869141" xlink:href="#DejaVuSans-30"/>
      </g>
     </g>
    </g>
    <g id="xtick_4">
     <g id="line2d_4">
      <g>
       <use style="stroke:#000000;stroke-width:0.8;" x="240.040775" xlink:href="#m87a2dd9f90" y="307.584"/>
      </g>
     </g>
     <g id="text_4">
      <!-- 1500 -->
      <g transform="translate(227.315775 322.182437)scale(0.1 -0.1)">
       <use xlink:href="#DejaVuSans-31"/>
       <use x="63.623047" xlink:href="#DejaVuSans-35"/>
       <use x="127.246094" xlink:href="#DejaVuSans-30"/>
       <use x="190.869141" xlink:href="#DejaVuSans-30"/>
      </g>
     </g>
    </g>
    <g id="xtick_5">
     <g id="line2d_5">
      <g>
       <use style="stroke:#000000;stroke-width:0.8;" x="295.480417" xlink:href="#m87a2dd9f90" y="307.584"/>
      </g>
     </g>
     <g id="text_5">
      <!-- 2000 -->
      <g transform="translate(282.755417 322.182437)scale(0.1 -0.1)">
       <defs>
        <path d="M 1228 531 
L 3431 531 
L 3431 0 
L 469 0 
L 469 531 
Q 828 903 1448 1529 
Q 2069 2156 2228 2338 
Q 2531 2678 2651 2914 
Q 2772 3150 2772 3378 
Q 2772 3750 2511 3984 
Q 2250 4219 1831 4219 
Q 1534 4219 1204 4116 
Q 875 4013 500 3803 
L 500 4441 
Q 881 4594 1212 4672 
Q 1544 4750 1819 4750 
Q 2544 4750 2975 4387 
Q 3406 4025 3406 3419 
Q 3406 3131 3298 2873 
Q 3191 2616 2906 2266 
Q 2828 2175 2409 1742 
Q 1991 1309 1228 531 
z
" id="DejaVuSans-32" transform="scale(0.015625)"/>
       </defs>
       <use xlink:href="#DejaVuSans-32"/>
       <use x="63.623047" xlink:href="#DejaVuSans-30"/>
       <use x="127.246094" xlink:href="#DejaVuSans-30"/>
       <use x="190.869141" xlink:href="#DejaVuSans-30"/>
      </g>
     </g>
    </g>
    <g id="xtick_6">
     <g id="line2d_6">
      <g>
       <use style="stroke:#000000;stroke-width:0.8;" x="350.92006" xlink:href="#m87a2dd9f90" y="307.584"/>
      </g>
     </g>
     <g id="text_6">
      <!-- 2500 -->
      <g transform="translate(338.19506 322.182437)scale(0.1 -0.1)">
       <use xlink:href="#DejaVuSans-32"/>
       <use x="63.623047" xlink:href="#DejaVuSans-35"/>
       <use x="127.246094" xlink:href="#DejaVuSans-30"/>
       <use x="190.869141" xlink:href="#DejaVuSans-30"/>
      </g>
     </g>
    </g>
    <g id="xtick_7">
     <g id="line2d_7">
      <g>
       <use style="stroke:#000000;stroke-width:0.8;" x="406.359702" xlink:href="#m87a2dd9f90" y="307.584"/>
      </g>
     </g>
     <g id="text_7">
      <!-- 3000 -->
      <g transform="translate(393.634702 322.182437)scale(0.1 -0.1)">
       <defs>
        <path d="M 2597 2516 
Q 3050 2419 3304 2112 
Q 3559 1806 3559 1356 
Q 3559 666 3084 287 
Q 2609 -91 1734 -91 
Q 1441 -91 1130 -33 
Q 819 25 488 141 
L 488 750 
Q 750 597 1062 519 
Q 1375 441 1716 441 
Q 2309 441 2620 675 
Q 2931 909 2931 1356 
Q 2931 1769 2642 2001 
Q 2353 2234 1838 2234 
L 1294 2234 
L 1294 2753 
L 1863 2753 
Q 2328 2753 2575 2939 
Q 2822 3125 2822 3475 
Q 2822 3834 2567 4026 
Q 2313 4219 1838 4219 
Q 1578 4219 1281 4162 
Q 984 4106 628 3988 
L 628 4550 
Q 988 4650 1302 4700 
Q 1616 4750 1894 4750 
Q 2613 4750 3031 4423 
Q 3450 4097 3450 3541 
Q 3450 3153 3228 2886 
Q 3006 2619 2597 2516 
z
" id="DejaVuSans-33" transform="scale(0.015625)"/>
       </defs>
       <use xlink:href="#DejaVuSans-33"/>
       <use x="63.623047" xlink:href="#DejaVuSans-30"/>
       <use x="127.246094" xlink:href="#DejaVuSans-30"/>
       <use x="190.869141" xlink:href="#DejaVuSans-30"/>
      </g>
     </g>
    </g>
    <g id="text_8">
     <!-- Highest Ranking -->
     <g transform="translate(195.215469 335.860562)scale(0.1 -0.1)">
      <defs>
       <path d="M 628 4666 
L 1259 4666 
L 1259 2753 
L 3553 2753 
L 3553 4666 
L 4184 4666 
L 4184 0 
L 3553 0 
L 3553 2222 
L 1259 2222 
L 1259 0 
L 628 0 
L 628 4666 
z
" id="DejaVuSans-48" transform="scale(0.015625)"/>
       <path d="M 603 3500 
L 1178 3500 
L 1178 0 
L 603 0 
L 603 3500 
z
M 603 4863 
L 1178 4863 
L 1178 4134 
L 603 4134 
L 603 4863 
z
" id="DejaVuSans-69" transform="scale(0.015625)"/>
       <path d="M 2906 1791 
Q 2906 2416 2648 2759 
Q 2391 3103 1925 3103 
Q 1463 3103 1205 2759 
Q 947 2416 947 1791 
Q 947 1169 1205 825 
Q 1463 481 1925 481 
Q 2391 481 2648 825 
Q 2906 1169 2906 1791 
z
M 3481 434 
Q 3481 -459 3084 -895 
Q 2688 -1331 1869 -1331 
Q 1566 -1331 1297 -1286 
Q 1028 -1241 775 -1147 
L 775 -588 
Q 1028 -725 1275 -790 
Q 1522 -856 1778 -856 
Q 2344 -856 2625 -561 
Q 2906 -266 2906 331 
L 2906 616 
Q 2728 306 2450 153 
Q 2172 0 1784 0 
Q 1141 0 747 490 
Q 353 981 353 1791 
Q 353 2603 747 3093 
Q 1141 3584 1784 3584 
Q 2172 3584 2450 3431 
Q 2728 3278 2906 2969 
L 2906 3500 
L 3481 3500 
L 3481 434 
z
" id="DejaVuSans-67" transform="scale(0.015625)"/>
       <path d="M 3513 2113 
L 3513 0 
L 2938 0 
L 2938 2094 
Q 2938 2591 2744 2837 
Q 2550 3084 2163 3084 
Q 1697 3084 1428 2787 
Q 1159 2491 1159 1978 
L 1159 0 
L 581 0 
L 581 4863 
L 1159 4863 
L 1159 2956 
Q 1366 3272 1645 3428 
Q 1925 3584 2291 3584 
Q 2894 3584 3203 3211 
Q 3513 2838 3513 2113 
z
" id="DejaVuSans-68" transform="scale(0.015625)"/>
       <path d="M 3597 1894 
L 3597 1613 
L 953 1613 
Q 991 1019 1311 708 
Q 1631 397 2203 397 
Q 2534 397 2845 478 
Q 3156 559 3463 722 
L 3463 178 
Q 3153 47 2828 -22 
Q 2503 -91 2169 -91 
Q 1331 -91 842 396 
Q 353 884 353 1716 
Q 353 2575 817 3079 
Q 1281 3584 2069 3584 
Q 2775 3584 3186 3129 
Q 3597 2675 3597 1894 
z
M 3022 2063 
Q 3016 2534 2758 2815 
Q 2500 3097 2075 3097 
Q 1594 3097 1305 2825 
Q 1016 2553 972 2059 
L 3022 2063 
z
" id="DejaVuSans-65" transform="scale(0.015625)"/>
       <path d="M 2834 3397 
L 2834 2853 
Q 2591 2978 2328 3040 
Q 2066 3103 1784 3103 
Q 1356 3103 1142 2972 
Q 928 2841 928 2578 
Q 928 2378 1081 2264 
Q 1234 2150 1697 2047 
L 1894 2003 
Q 2506 1872 2764 1633 
Q 3022 1394 3022 966 
Q 3022 478 2636 193 
Q 2250 -91 1575 -91 
Q 1294 -91 989 -36 
Q 684 19 347 128 
L 347 722 
Q 666 556 975 473 
Q 1284 391 1588 391 
Q 1994 391 2212 530 
Q 2431 669 2431 922 
Q 2431 1156 2273 1281 
Q 2116 1406 1581 1522 
L 1381 1569 
Q 847 1681 609 1914 
Q 372 2147 372 2553 
Q 372 3047 722 3315 
Q 1072 3584 1716 3584 
Q 2034 3584 2315 3537 
Q 2597 3491 2834 3397 
z
" id="DejaVuSans-73" transform="scale(0.015625)"/>
       <path d="M 1172 4494 
L 1172 3500 
L 2356 3500 
L 2356 3053 
L 1172 3053 
L 1172 1153 
Q 1172 725 1289 603 
Q 1406 481 1766 481 
L 2356 481 
L 2356 0 
L 1766 0 
Q 1100 0 847 248 
Q 594 497 594 1153 
L 594 3053 
L 172 3053 
L 172 3500 
L 594 3500 
L 594 4494 
L 1172 4494 
z
" id="DejaVuSans-74" transform="scale(0.015625)"/>
       <path id="DejaVuSans-20" transform="scale(0.015625)"/>
       <path d="M 2841 2188 
Q 3044 2119 3236 1894 
Q 3428 1669 3622 1275 
L 4263 0 
L 3584 0 
L 2988 1197 
Q 2756 1666 2539 1819 
Q 2322 1972 1947 1972 
L 1259 1972 
L 1259 0 
L 628 0 
L 628 4666 
L 2053 4666 
Q 2853 4666 3247 4331 
Q 3641 3997 3641 3322 
Q 3641 2881 3436 2590 
Q 3231 2300 2841 2188 
z
M 1259 4147 
L 1259 2491 
L 2053 2491 
Q 2509 2491 2742 2702 
Q 2975 2913 2975 3322 
Q 2975 3731 2742 3939 
Q 2509 4147 2053 4147 
L 1259 4147 
z
" id="DejaVuSans-52" transform="scale(0.015625)"/>
       <path d="M 2194 1759 
Q 1497 1759 1228 1600 
Q 959 1441 959 1056 
Q 959 750 1161 570 
Q 1363 391 1709 391 
Q 2188 391 2477 730 
Q 2766 1069 2766 1631 
L 2766 1759 
L 2194 1759 
z
M 3341 1997 
L 3341 0 
L 2766 0 
L 2766 531 
Q 2569 213 2275 61 
Q 1981 -91 1556 -91 
Q 1019 -91 701 211 
Q 384 513 384 1019 
Q 384 1609 779 1909 
Q 1175 2209 1959 2209 
L 2766 2209 
L 2766 2266 
Q 2766 2663 2505 2880 
Q 2244 3097 1772 3097 
Q 1472 3097 1187 3025 
Q 903 2953 641 2809 
L 641 3341 
Q 956 3463 1253 3523 
Q 1550 3584 1831 3584 
Q 2591 3584 2966 3190 
Q 3341 2797 3341 1997 
z
" id="DejaVuSans-61" transform="scale(0.015625)"/>
       <path d="M 3513 2113 
L 3513 0 
L 2938 0 
L 2938 2094 
Q 2938 2591 2744 2837 
Q 2550 3084 2163 3084 
Q 1697 3084 1428 2787 
Q 1159 2491 1159 1978 
L 1159 0 
L 581 0 
L 581 3500 
L 1159 3500 
L 1159 2956 
Q 1366 3272 1645 3428 
Q 1925 3584 2291 3584 
Q 2894 3584 3203 3211 
Q 3513 2838 3513 2113 
z
" id="DejaVuSans-6e" transform="scale(0.015625)"/>
       <path d="M 581 4863 
L 1159 4863 
L 1159 1991 
L 2875 3500 
L 3609 3500 
L 1753 1863 
L 3688 0 
L 2938 0 
L 1159 1709 
L 1159 0 
L 581 0 
L 581 4863 
z
" id="DejaVuSans-6b" transform="scale(0.015625)"/>
      </defs>
      <use xlink:href="#DejaVuSans-48"/>
      <use x="75.195312" xlink:href="#DejaVuSans-69"/>
      <use x="102.978516" xlink:href="#DejaVuSans-67"/>
      <use x="166.455078" xlink:href="#DejaVuSans-68"/>
      <use x="229.833984" xlink:href="#DejaVuSans-65"/>
      <use x="291.357422" xlink:href="#DejaVuSans-73"/>
      <use x="343.457031" xlink:href="#DejaVuSans-74"/>
      <use x="382.666016" xlink:href="#DejaVuSans-20"/>
      <use x="414.453125" xlink:href="#DejaVuSans-52"/>
      <use x="481.685547" xlink:href="#DejaVuSans-61"/>
      <use x="542.964844" xlink:href="#DejaVuSans-6e"/>
      <use x="606.34375" xlink:href="#DejaVuSans-6b"/>
      <use x="664.253906" xlink:href="#DejaVuSans-69"/>
      <use x="692.037109" xlink:href="#DejaVuSans-6e"/>
      <use x="755.416016" xlink:href="#DejaVuSans-67"/>
     </g>
    </g>
   </g>
   <g id="matplotlib.axis_2">
    <g id="ytick_1">
     <g id="line2d_8">
      <defs>
       <path d="M 0 0 
L -3.5 0 
" id="mdf110d930f" style="stroke:#000000;stroke-width:0.8;"/>
      </defs>
      <g>
       <use style="stroke:#000000;stroke-width:0.8;" x="57.6" xlink:href="#mdf110d930f" y="295.488"/>
      </g>
     </g>
     <g id="text_9">
      <!-- 0 -->
      <g transform="translate(44.2375 299.287219)scale(0.1 -0.1)">
       <use xlink:href="#DejaVuSans-30"/>
      </g>
     </g>
    </g>
    <g id="ytick_2">
     <g id="line2d_9">
      <g>
       <use style="stroke:#000000;stroke-width:0.8;" x="57.6" xlink:href="#mdf110d930f" y="262.670473"/>
      </g>
     </g>
     <g id="text_10">
      <!-- 250 -->
      <g transform="translate(31.5125 266.469691)scale(0.1 -0.1)">
       <use xlink:href="#DejaVuSans-32"/>
       <use x="63.623047" xlink:href="#DejaVuSans-35"/>
       <use x="127.246094" xlink:href="#DejaVuSans-30"/>
      </g>
     </g>
    </g>
    <g id="ytick_3">
     <g id="line2d_10">
      <g>
       <use style="stroke:#000000;stroke-width:0.8;" x="57.6" xlink:href="#mdf110d930f" y="229.852945"/>
      </g>
     </g>
     <g id="text_11">
      <!-- 500 -->
      <g transform="translate(31.5125 233.652164)scale(0.1 -0.1)">
       <use xlink:href="#DejaVuSans-35"/>
       <use x="63.623047" xlink:href="#DejaVuSans-30"/>
       <use x="127.246094" xlink:href="#DejaVuSans-30"/>
      </g>
     </g>
    </g>
    <g id="ytick_4">
     <g id="line2d_11">
      <g>
       <use style="stroke:#000000;stroke-width:0.8;" x="57.6" xlink:href="#mdf110d930f" y="197.035418"/>
      </g>
     </g>
     <g id="text_12">
      <!-- 750 -->
      <g transform="translate(31.5125 200.834637)scale(0.1 -0.1)">
       <defs>
        <path d="M 525 4666 
L 3525 4666 
L 3525 4397 
L 1831 0 
L 1172 0 
L 2766 4134 
L 525 4134 
L 525 4666 
z
" id="DejaVuSans-37" transform="scale(0.015625)"/>
       </defs>
       <use xlink:href="#DejaVuSans-37"/>
       <use x="63.623047" xlink:href="#DejaVuSans-35"/>
       <use x="127.246094" xlink:href="#DejaVuSans-30"/>
      </g>
     </g>
    </g>
    <g id="ytick_5">
     <g id="line2d_12">
      <g>
       <use style="stroke:#000000;stroke-width:0.8;" x="57.6" xlink:href="#mdf110d930f" y="164.217891"/>
      </g>
     </g>
     <g id="text_13">
      <!-- 1000 -->
      <g transform="translate(25.15 168.017109)scale(0.1 -0.1)">
       <use xlink:href="#DejaVuSans-31"/>
       <use x="63.623047" xlink:href="#DejaVuSans-30"/>
       <use x="127.246094" xlink:href="#DejaVuSans-30"/>
       <use x="190.869141" xlink:href="#DejaVuSans-30"/>
      </g>
     </g>
    </g>
    <g id="ytick_6">
     <g id="line2d_13">
      <g>
       <use style="stroke:#000000;stroke-width:0.8;" x="57.6" xlink:href="#mdf110d930f" y="131.400363"/>
      </g>
     </g>
     <g id="text_14">
      <!-- 1250 -->
      <g transform="translate(25.15 135.199582)scale(0.1 -0.1)">
       <use xlink:href="#DejaVuSans-31"/>
       <use x="63.623047" xlink:href="#DejaVuSans-32"/>
       <use x="127.246094" xlink:href="#DejaVuSans-35"/>
       <use x="190.869141" xlink:href="#DejaVuSans-30"/>
      </g>
     </g>
    </g>
    <g id="ytick_7">
     <g id="line2d_14">
      <g>
       <use style="stroke:#000000;stroke-width:0.8;" x="57.6" xlink:href="#mdf110d930f" y="98.582836"/>
      </g>
     </g>
     <g id="text_15">
      <!-- 1500 -->
      <g transform="translate(25.15 102.382055)scale(0.1 -0.1)">
       <use xlink:href="#DejaVuSans-31"/>
       <use x="63.623047" xlink:href="#DejaVuSans-35"/>
       <use x="127.246094" xlink:href="#DejaVuSans-30"/>
       <use x="190.869141" xlink:href="#DejaVuSans-30"/>
      </g>
     </g>
    </g>
    <g id="ytick_8">
     <g id="line2d_15">
      <g>
       <use style="stroke:#000000;stroke-width:0.8;" x="57.6" xlink:href="#mdf110d930f" y="65.765309"/>
      </g>
     </g>
     <g id="text_16">
      <!-- 1750 -->
      <g transform="translate(25.15 69.564528)scale(0.1 -0.1)">
       <use xlink:href="#DejaVuSans-31"/>
       <use x="63.623047" xlink:href="#DejaVuSans-37"/>
       <use x="127.246094" xlink:href="#DejaVuSans-35"/>
       <use x="190.869141" xlink:href="#DejaVuSans-30"/>
      </g>
     </g>
    </g>
    <g id="text_17">
     <!-- Ranks Std. Dev. -->
     <g transform="translate(19.070312 213.785812)rotate(-90)scale(0.1 -0.1)">
      <defs>
       <path d="M 3425 4513 
L 3425 3897 
Q 3066 4069 2747 4153 
Q 2428 4238 2131 4238 
Q 1616 4238 1336 4038 
Q 1056 3838 1056 3469 
Q 1056 3159 1242 3001 
Q 1428 2844 1947 2747 
L 2328 2669 
Q 3034 2534 3370 2195 
Q 3706 1856 3706 1288 
Q 3706 609 3251 259 
Q 2797 -91 1919 -91 
Q 1588 -91 1214 -16 
Q 841 59 441 206 
L 441 856 
Q 825 641 1194 531 
Q 1563 422 1919 422 
Q 2459 422 2753 634 
Q 3047 847 3047 1241 
Q 3047 1584 2836 1778 
Q 2625 1972 2144 2069 
L 1759 2144 
Q 1053 2284 737 2584 
Q 422 2884 422 3419 
Q 422 4038 858 4394 
Q 1294 4750 2059 4750 
Q 2388 4750 2728 4690 
Q 3069 4631 3425 4513 
z
" id="DejaVuSans-53" transform="scale(0.015625)"/>
       <path d="M 2906 2969 
L 2906 4863 
L 3481 4863 
L 3481 0 
L 2906 0 
L 2906 525 
Q 2725 213 2448 61 
Q 2172 -91 1784 -91 
Q 1150 -91 751 415 
Q 353 922 353 1747 
Q 353 2572 751 3078 
Q 1150 3584 1784 3584 
Q 2172 3584 2448 3432 
Q 2725 3281 2906 2969 
z
M 947 1747 
Q 947 1113 1208 752 
Q 1469 391 1925 391 
Q 2381 391 2643 752 
Q 2906 1113 2906 1747 
Q 2906 2381 2643 2742 
Q 2381 3103 1925 3103 
Q 1469 3103 1208 2742 
Q 947 2381 947 1747 
z
" id="DejaVuSans-64" transform="scale(0.015625)"/>
       <path d="M 684 794 
L 1344 794 
L 1344 0 
L 684 0 
L 684 794 
z
" id="DejaVuSans-2e" transform="scale(0.015625)"/>
       <path d="M 1259 4147 
L 1259 519 
L 2022 519 
Q 2988 519 3436 956 
Q 3884 1394 3884 2338 
Q 3884 3275 3436 3711 
Q 2988 4147 2022 4147 
L 1259 4147 
z
M 628 4666 
L 1925 4666 
Q 3281 4666 3915 4102 
Q 4550 3538 4550 2338 
Q 4550 1131 3912 565 
Q 3275 0 1925 0 
L 628 0 
L 628 4666 
z
" id="DejaVuSans-44" transform="scale(0.015625)"/>
       <path d="M 191 3500 
L 800 3500 
L 1894 563 
L 2988 3500 
L 3597 3500 
L 2284 0 
L 1503 0 
L 191 3500 
z
" id="DejaVuSans-76" transform="scale(0.015625)"/>
      </defs>
      <use xlink:href="#DejaVuSans-52"/>
      <use x="67.232422" xlink:href="#DejaVuSans-61"/>
      <use x="128.511719" xlink:href="#DejaVuSans-6e"/>
      <use x="191.890625" xlink:href="#DejaVuSans-6b"/>
      <use x="249.800781" xlink:href="#DejaVuSans-73"/>
      <use x="301.900391" xlink:href="#DejaVuSans-20"/>
      <use x="333.6875" xlink:href="#DejaVuSans-53"/>
      <use x="397.164062" xlink:href="#DejaVuSans-74"/>
      <use x="436.373047" xlink:href="#DejaVuSans-64"/>
      <use x="499.849609" xlink:href="#DejaVuSans-2e"/>
      <use x="531.636719" xlink:href="#DejaVuSans-20"/>
      <use x="563.423828" xlink:href="#DejaVuSans-44"/>
      <use x="640.425781" xlink:href="#DejaVuSans-65"/>
      <use x="701.949219" xlink:href="#DejaVuSans-76"/>
      <use x="753.378906" xlink:href="#DejaVuSans-2e"/>
     </g>
    </g>
   </g>
   <g id="LineCollection_1">
    <path clip-path="url(#p64256f6a17)" d="M 95.897705 295.488 
L 95.897705 72.328814 
" style="fill:none;stroke:#ff0000;"/>
   </g>
   <g id="patch_3">
    <path d="M 57.6 307.584 
L 57.6 41.472 
" style="fill:none;stroke:#000000;stroke-linecap:square;stroke-linejoin:miter;stroke-width:0.8;"/>
   </g>
   <g id="patch_4">
    <path d="M 414.72 307.584 
L 414.72 41.472 
" style="fill:none;stroke:#000000;stroke-linecap:square;stroke-linejoin:miter;stroke-width:0.8;"/>
   </g>
   <g id="patch_5">
    <path d="M 57.6 307.584 
L 414.72 307.584 
" style="fill:none;stroke:#000000;stroke-linecap:square;stroke-linejoin:miter;stroke-width:0.8;"/>
   </g>
   <g id="patch_6">
    <path d="M 57.6 41.472 
L 414.72 41.472 
" style="fill:none;stroke:#000000;stroke-linecap:square;stroke-linejoin:miter;stroke-width:0.8;"/>
   </g>
  </g>
 </g>
 <defs>
  <clipPath id="p64256f6a17">
   <rect height="266.112" width="357.12" x="57.6" y="41.472"/>
  </clipPath>
 </defs>
</svg>
